<svg width="135" height="40" viewBox="0 0 135 40" version="1.1" xmlns="http://www.w3.org/2000/svg" xmlns:xlink="http://www.w3.org/1999/xlink">
<title>Download_on_the_App_Store_Badge_US-UK_135x40</title>
<desc>Created using Figma</desc>
<g id="Canvas" transform="translate(698 -1047)">
<rect x="-698" y="1047" width="135" height="40" fill="#E5E5E5"/>
<clipPath id="clip-0" clip-rule="evenodd">
<path d="M -889 -195L 551 -195L 551 1175L -889 1175L -889 -195Z" fill="#FFFFFF"/>
</clipPath>
<g id="Landing" clip-path="url(#clip-0)">
<path d="M -889 -195L 551 -195L 551 1175L -889 1175L -889 -195Z" fill="#FFFFFF"/>
<g id="Group 9">
<g id="Rectangle 4">
<use xlink:href="#path0_fill" transform="translate(-889 868)" fill="#F2F2F2"/>
</g>
<g id="Group 5">
<g id="Download_on_the_App_Store_Badge_US-UK_135x40">
<g id="Group">
<g id="Vector">
<use xlink:href="#path1_fill" transform="translate(-698 1047)" fill="#A6A6A6"/>
</g>
<g id="Vector">
<use xlink:href="#path2_fill" transform="translate(-697.11 1047.89)"/>
</g>
<g id="Group">
<g id="Group">
<g id="Vector">
<use xlink:href="#path3_fill" transform="translate(-685.208 1059.37)" fill="#FFFFFF"/>
</g>
<g id="Vector">
<use xlink:href="#path4_fill" transform="translate(-674.894 1053.22)" fill="#FFFFFF"/>
</g>
</g>
</g>
<g id="Group">
<g id="Vector">
<use xlink:href="#path5_fill" transform="translate(-655.59 1065.2)" fill="#FFFFFF"/>
</g>
<g id="Vector">
<use xlink:href="#path6_fill" transform="translate(-642.579 1068.71)" fill="#FFFFFF"/>
</g>
<g id="Vector">
<use xlink:href="#path7_fill" transform="translate(-631.541 1068.71)" fill="#FFFFFF"/>
</g>
<g id="Vector">
<use xlink:href="#path8_fill" transform="translate(-618.217 1065)" fill="#FFFFFF"/>
</g>
<g id="Vector">
<use xlink:href="#path9_fill" transform="translate(-608.756 1066.52)" fill="#FFFFFF"/>
</g>
<g id="Vector">
<use xlink:href="#path10_fill" transform="translate(-601.708 1068.71)" fill="#FFFFFF"/>
</g>
<g id="Vector">
<use xlink:href="#path11_fill" transform="translate(-590.513 1068.71)" fill="#FFFFFF"/>
</g>
<g id="Vector">
<use xlink:href="#path12_fill" transform="translate(-584.372 1068.69)" fill="#FFFFFF"/>
</g>
</g>
<g id="Group">
<g id="Group">
<g id="Vector">
<use xlink:href="#path13_fill" transform="translate(-654.324 1053.85)" fill="#FFFFFF"/>
</g>
<g id="Vector">
<use xlink:href="#path14_fill" transform="translate(-647.708 1055.62)" fill="#FFFFFF"/>
</g>
<g id="Vector">
<use xlink:href="#path15_fill" transform="translate(-642.065 1055.72)" fill="#FFFFFF"/>
</g>
<g id="Vector">
<use xlink:href="#path16_fill" transform="translate(-633.934 1055.62)" fill="#FFFFFF"/>
</g>
<g id="Vector">
<use xlink:href="#path17_fill" transform="translate(-627.959 1053.56)" fill="#FFFFFF"/>
</g>
<g id="Vector">
<use xlink:href="#path18_fill" transform="translate(-625.359 1055.62)" fill="#FFFFFF"/>
</g>
<g id="Vector">
<use xlink:href="#path19_fill" transform="translate(-619.54 1055.62)" fill="#FFFFFF"/>
</g>
<g id="Vector">
<use xlink:href="#path20_fill" transform="translate(-614.215 1053.56)" fill="#FFFFFF"/>
</g>
<g id="Vector">
<use xlink:href="#path21_fill" transform="translate(-605.369 1055.62)" fill="#FFFFFF"/>
</g>
<g id="Vector">
<use xlink:href="#path22_fill" transform="translate(-599.248 1055.62)" fill="#FFFFFF"/>
</g>
<g id="Vector">
<use xlink:href="#path23_fill" transform="translate(-590.935 1054.55)" fill="#FFFFFF"/>
</g>
<g id="Vector">
<use xlink:href="#path24_fill" transform="translate(-586.61 1053.56)" fill="#FFFFFF"/>
</g>
<g id="Vector">
<use xlink:href="#path25_fill" transform="translate(-580.984 1055.61)" fill="#FFFFFF"/>
</g>
</g>
</g>
</g>
</g>
</g>
</g>
</g>
</g>
<defs>
<path id="path0_fill" d="M 0 0L 1440 0L 1440 251L 0 251L 0 0Z"/>
<path id="path1_fill" d="M 130.197 40L 4.729 40C 2.122 40 0 37.872 0 35.267L 0 4.726C 0 2.12 2.122 0 4.729 0L 130.197 0C 132.803 0 135 2.12 135 4.726L 135 35.267C 135 37.872 132.803 40 130.197 40Z"/>
<path id="path2_fill" d="M 133.142 34.378C 133.142 36.494 131.428 38.208 129.308 38.208L 3.839 38.208C 1.72 38.208 -1.43051e-08 36.494 -1.43051e-08 34.378L -1.43051e-08 3.835C -1.43051e-08 1.72 1.72 -1.43051e-08 3.839 -1.43051e-08L 129.307 -1.43051e-08C 131.428 -1.43051e-08 133.141 1.72 133.141 3.835L 133.142 34.378Z"/>
<path id="path3_fill" d="M 17.3361 7.4131C 17.3071 4.1901 19.9751 2.6221 20.0971 2.5491C 18.5861 0.346103 16.2441 0.0451037 15.4211 0.0211037C 13.4541 -0.185896 11.5461 1.1981 10.5441 1.1981C 9.5221 1.1981 7.9791 0.0411036 6.3161 0.0751036C 4.1761 0.108104 2.1741 1.3471 1.0761 3.2711C -1.1899 7.1941 0.500096 12.9591 2.6711 16.1301C 3.7571 17.6831 5.0261 19.4171 6.6871 19.3561C 8.3121 19.2891 8.9191 18.3201 10.8801 18.3201C 12.8231 18.3201 13.3931 19.3561 15.0871 19.3171C 16.8311 19.2891 17.9291 17.7571 18.9771 16.1901C 20.2321 14.4101 20.7361 12.6571 20.7561 12.5671C 20.7151 12.5531 17.3691 11.2761 17.3361 7.4131Z"/>
<path id="path4_fill" d="M 3.82159 4.089C 4.69559 2.996 5.29359 1.509 5.12759 7.6294e-09C 3.86259 0.056 2.28059 0.875 1.36959 1.944C 0.563594 2.886 -0.156406 4.43 0.0295939 5.882C 1.45059 5.988 2.90959 5.165 3.82159 4.089Z"/>
<path id="path5_fill" d="M 11.235 13.308L 8.964 13.308L 7.72 9.399L 3.396 9.399L 2.211 13.308L -1.52588e-07 13.308L 4.284 -8.54492e-07L 6.93 -8.54492e-07L 11.235 13.308ZM 7.345 7.759L 6.22 4.284C 6.101 3.929 5.878 3.093 5.549 1.777L 5.509 1.777C 5.378 2.343 5.167 3.179 4.877 4.284L 3.772 7.759L 7.345 7.759Z"/>
<path id="path6_fill" d="M 9.241 4.877C 9.241 6.509 8.8 7.799 7.918 8.746C 7.128 9.589 6.147 10.01 4.976 10.01C 3.712 10.01 2.804 9.556 2.251 8.648L 2.211 8.648L 2.211 13.703L 0.079 13.703L 0.079 3.356C 0.079 2.33 0.0520014 1.277 1.43433e-06 0.197001L 1.875 0.197001L 1.994 1.718L 2.034 1.718C 2.745 0.572001 3.824 4.42505e-07 5.272 4.42505e-07C 6.404 4.42505e-07 7.349 0.447 8.105 1.342C 8.863 2.238 9.241 3.416 9.241 4.877ZM 7.069 4.955C 7.069 4.021 6.859 3.251 6.437 2.645C 5.976 2.013 5.357 1.697 4.581 1.697C 4.055 1.697 3.577 1.873 3.15 2.22C 2.722 2.57 2.442 3.027 2.311 3.593C 2.245 3.857 2.212 4.073 2.212 4.243L 2.212 5.843C 2.212 6.541 2.426 7.13 2.854 7.611C 3.282 8.092 3.838 8.332 4.522 8.332C 5.325 8.332 5.95 8.022 6.397 7.404C 6.845 6.785 7.069 5.969 7.069 4.955Z"/>
<path id="path7_fill" d="M 9.24 4.877C 9.24 6.509 8.799 7.799 7.916 8.746C 7.127 9.589 6.146 10.01 4.975 10.01C 3.711 10.01 2.803 9.556 2.251 8.648L 2.211 8.648L 2.211 13.703L 0.079002 13.703L 0.079002 3.356C 0.079002 2.33 0.0519996 1.277 -3.66211e-07 0.197001L 1.875 0.197001L 1.994 1.718L 2.034 1.718C 2.744 0.572001 3.823 4.42505e-07 5.272 4.42505e-07C 6.403 4.42505e-07 7.348 0.447 8.106 1.342C 8.861 2.238 9.24 3.416 9.24 4.877ZM 7.068 4.955C 7.068 4.021 6.857 3.251 6.435 2.645C 5.974 2.013 5.357 1.697 4.58 1.697C 4.053 1.697 3.576 1.873 3.148 2.22C 2.72 2.57 2.441 3.027 2.31 3.593C 2.245 3.857 2.211 4.073 2.211 4.243L 2.211 5.843C 2.211 6.541 2.425 7.13 2.851 7.611C 3.279 8.091 3.835 8.332 4.521 8.332C 5.324 8.332 5.949 8.022 6.396 7.404C 6.844 6.785 7.068 5.969 7.068 4.955Z"/>
<path id="path8_fill" d="M 8.256 9.771C 8.256 10.903 7.863 11.824 7.074 12.535C 6.207 13.312 5 13.7 3.449 13.7C 2.017 13.7 0.868997 13.424 -2.86865e-06 12.871L 0.494 11.094C 1.43 11.66 2.457 11.944 3.576 11.944C 4.379 11.944 5.004 11.762 5.453 11.4C 5.9 11.038 6.123 10.552 6.123 9.946C 6.123 9.406 5.939 8.951 5.57 8.582C 5.203 8.213 4.59 7.87 3.734 7.553C 1.404 6.684 0.240003 5.411 0.240003 3.737C 0.240003 2.643 0.648001 1.746 1.465 1.048C 2.279 0.349 3.365 -5.49316e-07 4.723 -5.49316e-07C 5.934 -5.49316e-07 6.94 0.210999 7.743 0.631999L 7.21 2.37C 6.46 1.962 5.612 1.758 4.663 1.758C 3.913 1.758 3.327 1.943 2.907 2.311C 2.552 2.64 2.374 3.041 2.374 3.516C 2.374 4.042 2.577 4.477 2.985 4.819C 3.34 5.135 3.985 5.477 4.921 5.846C 6.066 6.307 6.907 6.846 7.448 7.464C 7.987 8.08 8.256 8.851 8.256 9.771Z"/>
<path id="path9_fill" d="M 5.844 3.991L 3.494 3.991L 3.494 8.65C 3.494 9.835 3.908 10.427 4.738 10.427C 5.119 10.427 5.435 10.394 5.685 10.328L 5.744 11.947C 5.324 12.104 4.771 12.183 4.086 12.183C 3.244 12.183 2.586 11.926 2.111 11.413C 1.638 10.899 1.4 10.037 1.4 8.826L 1.4 3.989L 3.2959e-06 3.989L 3.2959e-06 2.389L 1.4 2.389L 1.4 0.632L 3.494 1.98364e-07L 3.494 2.389L 5.844 2.389L 5.844 3.991Z"/>
<path id="path10_fill" d="M 9.399 4.915C 9.399 6.39 8.977 7.601 8.135 8.548C 7.252 9.523 6.08 10.009 4.619 10.009C 3.211 10.009 2.09 9.542 1.254 8.608C 0.417998 7.674 -1.83105e-07 6.495 -1.83105e-07 5.074C -1.83105e-07 3.587 0.429999 2.369 1.293 1.422C 2.154 0.474001 3.316 -1.06812e-07 4.777 -1.06812e-07C 6.185 -1.06812e-07 7.318 0.467 8.173 1.402C 8.991 2.309 9.399 3.48 9.399 4.915ZM 7.187 4.984C 7.187 4.099 6.998 3.34 6.615 2.707C 6.168 1.941 5.529 1.559 4.701 1.559C 3.844 1.559 3.193 1.942 2.746 2.707C 2.363 3.341 2.174 4.112 2.174 5.024C 2.174 5.909 2.363 6.668 2.746 7.3C 3.207 8.066 3.851 8.448 4.682 8.448C 5.496 8.448 6.135 8.058 6.596 7.28C 6.989 6.635 7.187 5.868 7.187 4.984Z"/>
<path id="path11_fill" d="M 5.134 2.072C 4.923 2.033 4.698 2.013 4.462 2.013C 3.712 2.013 3.132 2.296 2.724 2.863C 2.369 3.363 2.191 3.995 2.191 4.758L 2.191 9.793L 0.0599971 9.793L 0.0800013 3.219C 0.0800013 2.113 0.0529995 1.106 -4.88281e-07 0.198L 1.857 0.198L 1.935 2.034L 1.994 2.034C 2.219 1.403 2.574 0.895 3.06 0.514C 3.535 0.171 4.048 4.42505e-07 4.601 4.42505e-07C 4.798 4.42505e-07 4.976 0.014 5.134 0.039L 5.134 2.072Z"/>
<path id="path12_fill" d="M 8.528 4.559C 8.528 4.941 8.503 5.263 8.45 5.526L 2.054 5.526C 2.079 6.474 2.388 7.199 2.982 7.699C 3.521 8.146 4.218 8.37 5.074 8.37C 6.021 8.37 6.885 8.219 7.662 7.916L 7.996 9.396C 7.088 9.792 6.016 9.989 4.779 9.989C 3.291 9.989 2.123 9.551 1.273 8.676C 0.425001 7.801 -1.64795e-06 6.626 -1.64795e-06 5.152C -1.64795e-06 3.705 0.395003 2.5 1.186 1.539C 2.014 0.513 3.133 7.93457e-07 4.541 7.93457e-07C 5.924 7.93457e-07 6.971 0.513 7.682 1.539C 8.245 2.354 8.528 3.362 8.528 4.559ZM 6.495 4.006C 6.509 3.374 6.37 2.828 6.081 2.367C 5.712 1.774 5.145 1.478 4.382 1.478C 3.685 1.478 3.118 1.767 2.685 2.347C 2.33 2.808 2.119 3.361 2.054 4.005L 6.495 4.005L 6.495 4.006Z"/>
<path id="path13_fill" d="M 5.374 3.163C 5.374 4.34 5.021 5.226 4.316 5.821C 3.663 6.37 2.735 6.645 1.533 6.645C 0.937 6.645 0.426999 6.619 -1.31226e-06 6.567L -1.31226e-06 0.136C 0.556999 0.0459999 1.157 1.9455e-07 1.805 1.9455e-07C 2.95 1.9455e-07 3.813 0.249 4.395 0.747C 5.047 1.31 5.374 2.115 5.374 3.163ZM 4.269 3.192C 4.269 2.429 4.067 1.844 3.663 1.436C 3.259 1.029 2.669 0.825 1.892 0.825C 1.562 0.825 1.281 0.847 1.048 0.893L 1.048 5.782C 1.177 5.802 1.413 5.811 1.756 5.811C 2.558 5.811 3.177 5.588 3.613 5.142C 4.049 4.696 4.269 4.046 4.269 3.192Z"/>
<path id="path14_fill" d="M 4.617 2.414C 4.617 3.139 4.41 3.733 3.996 4.199C 3.562 4.678 2.987 4.917 2.269 4.917C 1.577 4.917 1.026 4.688 0.615001 4.228C 0.205002 3.769 -1.83105e-07 3.19 -1.83105e-07 2.492C -1.83105e-07 1.762 0.210998 1.163 0.634998 0.698C 1.059 0.233 1.629 1.44958e-07 2.347 1.44958e-07C 3.039 1.44958e-07 3.595 0.229 4.016 0.688C 4.416 1.134 4.617 1.71 4.617 2.414ZM 3.53 2.448C 3.53 2.013 3.436 1.64 3.249 1.329C 3.029 0.953 2.716 0.765 2.309 0.765C 1.888 0.765 1.568 0.953 1.348 1.329C 1.16 1.64 1.067 2.019 1.067 2.467C 1.067 2.902 1.161 3.275 1.348 3.586C 1.575 3.962 1.891 4.15 2.299 4.15C 2.699 4.15 3.013 3.959 3.239 3.576C 3.433 3.259 3.53 2.883 3.53 2.448Z"/>
<path id="path15_fill" d="M 6.83 -1.37329e-07L 5.355 4.714L 4.395 4.714L 3.784 2.667C 3.629 2.156 3.503 1.648 3.405 1.144L 3.386 1.144C 3.295 1.662 3.169 2.169 3.007 2.667L 2.358 4.714L 1.387 4.714L 1.37329e-06 -1.37329e-07L 1.077 -1.37329e-07L 1.61 2.241C 1.739 2.771 1.845 3.276 1.93 3.754L 1.949 3.754C 2.027 3.36 2.156 2.858 2.338 2.251L 3.007 0.00100027L 3.861 0.00100027L 4.502 2.203C 4.657 2.74 4.783 3.257 4.88 3.755L 4.909 3.755C 4.98 3.27 5.087 2.753 5.229 2.203L 5.801 0.00100027L 6.83 0.00100027L 6.83 -1.37329e-07Z"/>
<path id="path16_fill" d="M 4.132 4.813L 3.084 4.813L 3.084 2.113C 3.084 1.281 2.768 0.865 2.134 0.865C 1.823 0.865 1.572 0.979 1.377 1.208C 1.184 1.437 1.086 1.707 1.086 2.016L 1.086 4.812L 0.0379963 4.812L 0.0379963 1.446C 0.0379963 1.032 0.0250019 0.583 1.89209e-06 0.097L 0.921 0.097L 0.970003 0.834L 0.999002 0.834C 1.121 0.605 1.303 0.416 1.542 0.265C 1.826 0.0890002 2.144 -1.14441e-07 2.492 -1.14441e-07C 2.932 -1.14441e-07 3.298 0.142 3.589 0.427C 3.951 0.776 4.132 1.297 4.132 1.989L 4.132 4.813Z"/>
<path id="path17_fill" d="M 1.047 6.877L 3.66211e-07 6.877L 3.66211e-07 2.32697e-07L 1.047 2.32697e-07L 1.047 6.877Z"/>
<path id="path18_fill" d="M 4.617 2.414C 4.617 3.139 4.41 3.733 3.996 4.199C 3.562 4.678 2.986 4.917 2.269 4.917C 1.576 4.917 1.025 4.688 0.614997 4.228C 0.204997 3.769 -1.15967e-06 3.19 -1.15967e-06 2.492C -1.15967e-06 1.762 0.211001 1.163 0.635001 0.698C 1.059 0.233 1.629 1.44958e-07 2.346 1.44958e-07C 3.039 1.44958e-07 3.594 0.229 4.016 0.688C 4.416 1.134 4.617 1.71 4.617 2.414ZM 3.529 2.448C 3.529 2.013 3.435 1.64 3.248 1.329C 3.029 0.953 2.715 0.765 2.309 0.765C 1.887 0.765 1.567 0.953 1.348 1.329C 1.16 1.64 1.067 2.019 1.067 2.467C 1.067 2.902 1.161 3.275 1.348 3.586C 1.575 3.962 1.891 4.15 2.299 4.15C 2.699 4.15 3.012 3.959 3.238 3.576C 3.433 3.259 3.529 2.883 3.529 2.448Z"/>
<path id="path19_fill" d="M 3.87 4.81L 2.929 4.81L 2.851 4.267L 2.822 4.267C 2.5 4.7 2.041 4.917 1.445 4.917C 0.999999 4.917 0.640002 4.774 0.369002 4.49C 0.123002 4.232 -9.15527e-07 3.911 -9.15527e-07 3.53C -9.15527e-07 2.954 0.239999 2.515 0.722999 2.211C 1.205 1.907 1.883 1.758 2.756 1.765L 2.756 1.677C 2.756 1.056 2.43 0.746 1.777 0.746C 1.312 0.746 0.902003 0.863 0.548003 1.095L 0.334998 0.407C 0.772998 0.136 1.314 1.44958e-07 1.952 1.44958e-07C 3.184 1.44958e-07 3.802 0.65 3.802 1.95L 3.802 3.686C 3.802 4.157 3.825 4.532 3.87 4.81ZM 2.782 3.19L 2.782 2.463C 1.626 2.443 1.048 2.76 1.048 3.413C 1.048 3.659 1.114 3.843 1.249 3.966C 1.384 4.089 1.556 4.15 1.761 4.15C 1.991 4.15 2.206 4.077 2.402 3.932C 2.599 3.786 2.72 3.601 2.765 3.374C 2.776 3.323 2.782 3.261 2.782 3.19Z"/>
<path id="path20_fill" d="M 4.5 6.877L 3.57 6.877L 3.521 6.12L 3.492 6.12C 3.195 6.696 2.689 6.984 1.978 6.984C 1.41 6.984 0.937 6.761 0.562 6.315C 0.187 5.869 3.66211e-06 5.29 3.66211e-06 4.579C 3.66211e-06 3.816 0.203004 3.198 0.611004 2.726C 1.006 2.286 1.49 2.066 2.066 2.066C 2.699 2.066 3.142 2.279 3.394 2.706L 3.414 2.706L 3.414 2.32697e-07L 4.463 2.32697e-07L 4.463 5.607C 4.463 6.066 4.475 6.489 4.5 6.877ZM 3.414 4.889L 3.414 4.103C 3.414 3.967 3.404 3.857 3.385 3.773C 3.326 3.521 3.199 3.309 3.006 3.138C 2.811 2.967 2.576 2.881 2.305 2.881C 1.914 2.881 1.608 3.036 1.383 3.347C 1.16 3.658 1.047 4.055 1.047 4.54C 1.047 5.006 1.154 5.384 1.369 5.675C 1.596 5.985 1.902 6.14 2.285 6.14C 2.629 6.14 2.904 6.011 3.113 5.752C 3.315 5.513 3.414 5.225 3.414 4.889Z"/>
<path id="path21_fill" d="M 4.617 2.414C 4.617 3.139 4.41 3.733 3.996 4.199C 3.562 4.678 2.988 4.917 2.269 4.917C 1.578 4.917 1.027 4.688 0.615002 4.228C 0.205002 3.769 -3.2959e-06 3.19 -3.2959e-06 2.492C -3.2959e-06 1.762 0.210999 1.163 0.634999 0.698C 1.059 0.233 1.629 1.44958e-07 2.348 1.44958e-07C 3.039 1.44958e-07 3.596 0.229 4.016 0.688C 4.416 1.134 4.617 1.71 4.617 2.414ZM 3.531 2.448C 3.531 2.013 3.437 1.64 3.25 1.329C 3.029 0.953 2.717 0.765 2.309 0.765C 1.889 0.765 1.569 0.953 1.348 1.329C 1.16 1.64 1.067 2.019 1.067 2.467C 1.067 2.902 1.161 3.275 1.348 3.586C 1.575 3.962 1.891 4.15 2.299 4.15C 2.699 4.15 3.014 3.959 3.24 3.576C 3.433 3.259 3.531 2.883 3.531 2.448Z"/>
<path id="path22_fill" d="M 4.131 4.813L 3.084 4.813L 3.084 2.113C 3.084 1.281 2.768 0.865 2.133 0.865C 1.822 0.865 1.571 0.979 1.377 1.208C 1.183 1.437 1.086 1.707 1.086 2.016L 1.086 4.812L 0.0370015 4.812L 0.0370015 1.446C 0.0370015 1.032 0.0249989 0.583 -1.09863e-06 0.097L 0.919997 0.097L 0.969001 0.834L 0.998 0.834C 1.121 0.605 1.303 0.416 1.541 0.265C 1.826 0.0890002 2.143 -1.14441e-07 2.492 -1.14441e-07C 2.931 -1.14441e-07 3.297 0.142 3.588 0.427C 3.951 0.776 4.131 1.297 4.131 1.989L 4.131 4.813Z"/>
<path id="path23_fill" d="M 2.871 1.959L 1.717 1.959L 1.717 4.249C 1.717 4.831 1.922 5.122 2.328 5.122C 2.516 5.122 2.672 5.106 2.795 5.073L 2.822 5.868C 2.615 5.946 2.343 5.985 2.008 5.985C 1.594 5.985 1.272 5.859 1.039 5.607C 0.804996 5.355 0.688998 4.931 0.688998 4.336L 0.688998 1.959L 2.44141e-06 1.959L 2.44141e-06 1.174L 0.688998 1.174L 0.688998 0.31L 1.716 7.62939e-08L 1.716 1.173L 2.87 1.173L 2.87 1.959L 2.871 1.959Z"/>
<path id="path24_fill" d="M 4.094 6.877L 3.045 6.877L 3.045 4.197C 3.045 3.352 2.729 2.929 2.096 2.929C 1.61 2.929 1.278 3.174 1.096 3.664C 1.065 3.767 1.047 3.893 1.047 4.041L 1.047 6.876L -6.10352e-07 6.876L -6.10352e-07 2.32697e-07L 1.047 2.32697e-07L 1.047 2.841L 1.067 2.841C 1.397 2.324 1.87 2.066 2.483 2.066C 2.917 2.066 3.276 2.208 3.561 2.493C 3.916 2.848 4.094 3.376 4.094 4.074L 4.094 6.877Z"/>
<path id="path25_fill" d="M 4.191 2.239C 4.191 2.427 4.177 2.585 4.152 2.714L 1.009 2.714C 1.023 3.18 1.173 3.535 1.464 3.781C 1.73 4.001 2.073 4.111 2.493 4.111C 2.958 4.111 3.382 4.037 3.764 3.888L 3.928 4.616C 3.481 4.81 2.955 4.907 2.346 4.907C 1.616 4.907 1.041 4.692 0.624999 4.262C 0.206999 3.832 -1.15967e-06 3.255 -1.15967e-06 2.531C -1.15967e-06 1.82 0.193 1.228 0.582 0.756C 0.988 0.252 1.537 3.20435e-07 2.23 3.20435e-07C 2.908 3.20435e-07 3.423 0.252 3.771 0.756C 4.052 1.156 4.191 1.651 4.191 2.239ZM 3.191 1.968C 3.199 1.657 3.13 1.389 2.988 1.163C 2.806 0.872 2.529 0.726 2.154 0.726C 1.812 0.726 1.533 0.868 1.32 1.153C 1.146 1.38 1.043 1.651 1.009 1.968L 3.191 1.968Z"/>
</defs>
</svg>
