<svg width="29" height="38" viewBox="0 0 29 38" version="1.1" xmlns="http://www.w3.org/2000/svg" xmlns:xlink="http://www.w3.org/1999/xlink">
<title>Vector</title>
<desc>Created using Figma</desc>
<g id="Canvas" transform="translate(820 -399)">
<g id="Vector">
<use xlink:href="#path0_fill" transform="matrix(1 2.77556e-17 -2.77556e-17 1 -819.641 399.333)" fill="#FFFFFF"/>
</g>
</g>
<defs>
<path id="path0_fill" d="M 28.06 14.971C 28.6454 11.058 25.666 8.95449 21.5922 7.55121L 22.9137 2.25057L 19.6872 1.44647L 18.4006 6.60743C 17.5524 6.39606 16.6812 6.19664 15.8155 5.99906L 17.1113 0.804103L 13.8866 0L 12.5642 5.29881C 11.8621 5.1389 11.1729 4.98084 10.5039 4.81451L 10.5076 4.79797L 6.05788 3.68693L 5.19956 7.13308C 5.19956 7.13308 7.59349 7.68171 7.54294 7.71571C 8.84972 8.04194 9.0859 8.9067 9.04638 9.59226L 7.5411 15.6308C 7.63116 15.6538 7.74787 15.6869 7.87653 15.7384C 7.76901 15.7117 7.65414 15.6823 7.53559 15.6538L 5.42563 24.113C 5.26572 24.51 4.86045 25.1055 3.94699 24.8794C 3.97916 24.9263 1.60177 24.294 1.60177 24.294L 5.48771e-07 27.9874L 4.19879 29.0341C 4.97992 29.2298 5.74543 29.4347 6.49899 29.6277L 5.16372 34.989L 8.38656 35.7931L 9.70896 30.4888C 10.5893 30.7277 11.444 30.9483 12.2803 31.156L 10.9624 36.4355L 14.189 37.2396L 15.5242 31.8884C 21.0261 32.9296 25.1634 32.5096 26.9048 27.5334C 28.3081 23.5267 26.835 21.2154 23.9402 19.7083C 26.0483 19.2222 27.6363 17.8355 28.06 14.971ZM 20.688 25.3086C 19.6909 29.3153 12.9447 27.1493 10.7575 26.6061L 12.5293 19.5034C 14.7165 20.0493 21.7301 21.13 20.688 25.3086ZM 21.686 14.9131C 20.7762 18.5578 15.1612 16.706 13.3398 16.2521L 14.9462 9.81005C 16.7676 10.264 22.6334 11.1113 21.686 14.9131Z"/>
</defs>
</svg>
