<svg width="79" height="18" viewBox="0 0 79 18" version="1.1" xmlns="http://www.w3.org/2000/svg" xmlns:xlink="http://www.w3.org/1999/xlink">
<title>eMoney</title>
<desc>Created using Figma</desc>
<g id="Canvas" transform="translate(-299 -2018)">
<g id="eMoney">
<g id="eMoney">
<use xlink:href="#path0_fill" transform="translate(299 2013)" fill="#BDBDBD"/>
</g>
</g>
</g>
<defs>
<path id="path0_fill" d="M 9.05556 12.4502C 9.07412 12.3389 9.08649 12.2368 9.09267 12.144C 9.10504 12.0513 9.11123 11.9554 9.11123 11.8564C 9.11123 11.3678 8.9597 10.9937 8.65664 10.7339C 8.35358 10.4741 7.91754 10.3442 7.34853 10.3442C 6.66201 10.3442 6.08372 10.5298 5.61367 10.9009C 5.1498 11.272 4.79726 11.7884 4.55605 12.4502L 9.05556 12.4502ZM 6.5043 19.2783C 4.72923 19.2783 3.35928 18.8856 2.39443 18.1001C 1.42959 17.3146 0.947166 16.2292 0.947166 14.8438C 0.947166 13.8975 1.10488 13.0285 1.42031 12.2368C 1.73574 11.4451 2.19033 10.7493 2.78408 10.1494C 3.35309 9.56803 4.06435 9.10726 4.91787 8.76709C 5.77139 8.42692 6.7084 8.25684 7.7289 8.25684C 9.28131 8.25684 10.4503 8.57227 11.2357 9.20312C 12.0274 9.8278 12.4232 10.7524 12.4232 11.9771C 12.4232 12.3976 12.3799 12.8089 12.2934 13.2109C 12.213 13.613 12.1047 14.0119 11.9687 14.4077L 4.23135 14.4077C 4.23135 14.4448 4.23135 14.4819 4.23135 14.519C 4.23135 14.55 4.23135 14.584 4.23135 14.6211C 4.23135 15.3447 4.48493 15.9106 4.99209 16.3188C 5.49925 16.7271 6.27545 16.9312 7.3207 16.9312C 8.05052 16.9312 8.74014 16.8075 9.38955 16.5601C 10.0451 16.3127 10.6142 16.0374 11.0966 15.7344L 11.4677 15.7344L 10.8461 18.4155C 10.1967 18.7 9.51325 18.9134 8.7958 19.0557C 8.07835 19.2041 7.31452 19.2783 6.5043 19.2783ZM 26.9664 19L 23.4039 19L 25.4913 9.96387L 21.6969 15.7529L 19.2384 15.7529L 18.0138 9.5835L 15.8429 19L 12.4659 19L 15.6573 5.18604L 19.7486 5.18604L 21.2608 12.1162L 25.9552 5.18604L 30.1578 5.18604L 26.9664 19ZM 41.3704 12.3945C 41.3704 13.3717 41.2065 14.2871 40.8787 15.1406C 40.5509 15.9941 40.0901 16.7271 39.4964 17.3394C 38.8779 17.9764 38.1604 18.4681 37.344 18.8145C 36.5276 19.1546 35.5752 19.3247 34.4866 19.3247C 32.9342 19.3247 31.7436 18.9536 30.9148 18.2114C 30.0861 17.4692 29.6717 16.4425 29.6717 15.1313C 29.6717 14.2036 29.8263 13.3223 30.1355 12.4873C 30.4448 11.6523 30.9025 10.9163 31.5086 10.2793C 32.0962 9.65462 32.8167 9.16292 33.6702 8.8042C 34.5299 8.43929 35.4917 8.25684 36.5555 8.25684C 38.1141 8.25684 39.3047 8.62484 40.1272 9.36084C 40.956 10.0907 41.3704 11.1019 41.3704 12.3945ZM 37.0286 15.8086C 37.3131 15.3757 37.5265 14.9025 37.6687 14.3892C 37.8172 13.8758 37.8914 13.2511 37.8914 12.5151C 37.8914 11.8781 37.7522 11.3895 37.4739 11.0493C 37.1956 10.703 36.7534 10.5298 36.1473 10.5298C 35.6772 10.5298 35.2628 10.6442 34.9041 10.873C 34.5516 11.1019 34.2392 11.4266 33.9671 11.8472C 33.7135 12.2368 33.5125 12.7192 33.3641 13.2944C 33.2218 13.8696 33.1507 14.4603 33.1507 15.0664C 33.1507 15.7777 33.3084 16.2879 33.6238 16.5972C 33.9393 16.9002 34.3722 17.0518 34.9227 17.0518C 35.3247 17.0518 35.7112 16.9435 36.0823 16.7271C 36.4534 16.5044 36.7688 16.1982 37.0286 15.8086ZM 53.6313 10.938C 53.6313 11.1235 53.619 11.3245 53.5942 11.541C 53.5695 11.7575 53.5293 11.9832 53.4736 12.2183L 51.915 19L 48.5381 19L 49.7256 13.8325C 49.8122 13.4491 49.8802 13.1213 49.9297 12.8491C 49.9792 12.577 50.0039 12.3234 50.0039 12.0884C 50.0039 11.6864 49.9019 11.3926 49.6978 11.207C 49.4937 11.0215 49.1195 10.9287 48.5752 10.9287C 48.3092 10.9287 48.0031 10.9875 47.6567 11.105C 47.3104 11.2163 46.9207 11.3864 46.4878 11.6152L 44.79 19L 41.4316 19L 43.8345 8.58154L 47.1929 8.58154L 46.9238 9.73193C 47.6104 9.28044 48.235 8.9279 48.7979 8.67432C 49.3669 8.42074 49.9915 8.29395 50.6719 8.29395C 51.6058 8.29395 52.3325 8.51969 52.8521 8.97119C 53.3716 9.42269 53.6313 10.0783 53.6313 10.938ZM 62.4597 12.4502C 62.4782 12.3389 62.4906 12.2368 62.4968 12.144C 62.5091 12.0513 62.5153 11.9554 62.5153 11.8564C 62.5153 11.3678 62.3638 10.9937 62.0607 10.7339C 61.7577 10.4741 61.3216 10.3442 60.7526 10.3442C 60.0661 10.3442 59.4878 10.5298 59.0178 10.9009C 58.5539 11.272 58.2014 11.7884 57.9602 12.4502L 62.4597 12.4502ZM 59.9084 19.2783C 58.1333 19.2783 56.7634 18.8856 55.7985 18.1001C 54.8337 17.3146 54.3513 16.2292 54.3513 14.8438C 54.3513 13.8975 54.509 13.0285 54.8244 12.2368C 55.1398 11.4451 55.5944 10.7493 56.1882 10.1494C 56.7572 9.56803 57.4685 9.10726 58.322 8.76709C 59.1755 8.42692 60.1125 8.25684 61.133 8.25684C 62.6854 8.25684 63.8544 8.57227 64.6398 9.20312C 65.4315 9.8278 65.8273 10.7524 65.8273 11.9771C 65.8273 12.3976 65.784 12.8089 65.6975 13.2109C 65.6171 13.613 65.5088 14.0119 65.3728 14.4077L 57.6354 14.4077C 57.6354 14.4448 57.6354 14.4819 57.6354 14.519C 57.6354 14.55 57.6354 14.584 57.6354 14.6211C 57.6354 15.3447 57.889 15.9106 58.3962 16.3188C 58.9034 16.7271 59.6796 16.9312 60.7248 16.9312C 61.4546 16.9312 62.1442 16.8075 62.7937 16.5601C 63.4493 16.3127 64.0183 16.0374 64.5007 15.7344L 64.8718 15.7344L 64.2502 18.4155C 63.6008 18.7 62.9173 18.9134 62.1999 19.0557C 61.4825 19.2041 60.7186 19.2783 59.9084 19.2783ZM 69.5346 22.8223L 65.87 22.8223L 68.5233 18.7959L 66.807 8.58154L 70.2211 8.58154L 71.121 15.4097L 75.0917 8.58154L 78.6171 8.58154L 69.5346 22.8223Z"/>
</defs>
</svg>
