<svg width="135" height="40" viewBox="0 0 135 40" version="1.1" xmlns="http://www.w3.org/2000/svg" xmlns:xlink="http://www.w3.org/1999/xlink">
<title>google-play-badge-vector</title>
<desc>Created using Figma</desc>
<g id="Canvas" transform="translate(849 -1047)">
<rect x="-849" y="1047" width="135" height="40" fill="#E5E5E5"/>
<clipPath id="clip-0" clip-rule="evenodd">
<path d="M -889 -195L 551 -195L 551 1175L -889 1175L -889 -195Z" fill="#FFFFFF"/>
</clipPath>
<g id="Landing" clip-path="url(#clip-0)">
<path d="M -889 -195L 551 -195L 551 1175L -889 1175L -889 -195Z" fill="#FFFFFF"/>
<g id="Group 9">
<g id="Rectangle 4">
<use xlink:href="#path0_fill" transform="translate(-889 868)" fill="#F2F2F2"/>
</g>
<g id="Group 5">
<g id="google-play-badge-vector">
<g id="Group">
<g id="Vector">
<use xlink:href="#path1_fill" transform="translate(-849 1047)"/>
</g>
<g id="Vector">
<use xlink:href="#path2_fill" transform="translate(-849 1047)" fill="#A6A6A6"/>
</g>
<g id="Vector">
<use xlink:href="#path3_fill" transform="translate(-807.959 1064.05)" fill="#FFFFFF"/>
</g>
<g id="Vector">
<use xlink:href="#path4_fill" transform="translate(-839.028 1054.61)" fill="url(#paint4_linear)"/>
</g>
<g id="Vector">
<use xlink:href="#path5_fill" transform="translate(-826.102 1062.87)" fill="url(#paint5_linear)"/>
</g>
<g id="Vector">
<use xlink:href="#path6_fill" transform="translate(-838.559 1067)" fill="url(#paint6_linear)"/>
</g>
<g id="Vector">
<use xlink:href="#path7_fill" transform="translate(-838.492 1054.14)" fill="url(#paint7_linear)"/>
</g>
<g id="Vector">
<use xlink:href="#path8_fill" transform="translate(-838.565 1071.28)" fill="#363639"/>
</g>
<g id="Vector">
<use xlink:href="#path9_fill" transform="translate(-821.973 1071.22)" fill="url(#paint9_linear)"/>
</g>
<g id="Vector">
<use xlink:href="#path10_fill" transform="translate(-838.565 1071.13)" fill="url(#paint10_linear)"/>
</g>
<g id="Vector">
<use xlink:href="#path11_fill" transform="translate(-839.028 1078.06)" fill="#363639"/>
</g>
<g id="Vector">
<use xlink:href="#path12_fill" transform="translate(-839.028 1077.91)" fill="url(#paint12_linear)"/>
</g>
<g id="Vector">
<use xlink:href="#path13_fill" transform="translate(-838.565 1079.39)" fill="url(#paint13_linear)"/>
</g>
<g id="Vector">
<use xlink:href="#path14_fill" transform="translate(-816.053 1067)" fill="#363639"/>
</g>
<g id="Vector">
<use xlink:href="#path15_fill" transform="translate(-821.972 1067)" fill="url(#paint15_linear)"/>
</g>
<g id="Vector">
<use xlink:href="#path16_fill" transform="translate(-821.879 1062.78)" fill="#645856"/>
</g>
<g id="Vector">
<use xlink:href="#path17_fill" transform="translate(-821.972 1062.78)" fill="url(#paint17_linear)"/>
</g>
<g id="Vector">
<use xlink:href="#path18_fill" transform="translate(-839.028 1054.14)" fill="#645856"/>
</g>
<g id="Vector">
<use xlink:href="#path19_fill" transform="translate(-839.028 1054.47)" fill="#7AEBFF"/>
</g>
<g id="Vector">
<use xlink:href="#path20_fill" transform="translate(-837.617 1054.14)" fill="#645856"/>
</g>
<g id="Vector">
<use xlink:href="#path21_fill" transform="translate(-838.565 1054.14)" fill="url(#paint21_linear)"/>
</g>
<g id="Vector">
<use xlink:href="#path22_fill" transform="translate(-807.624 1054)" fill="#FFFFFF"/>
</g>
<g id="Vector">
<use xlink:href="#path23_fill" transform="translate(-807.724 1053.9)" fill="#FFFFFF"/>
</g>
<g id="Vector">
<use xlink:href="#path24_fill" transform="translate(-800.869 1053.87)" fill="#FFFFFF"/>
</g>
<g id="Vector">
<use xlink:href="#path25_fill" transform="translate(-800.969 1053.77)" fill="#FFFFFF"/>
</g>
<g id="Vector">
<use xlink:href="#path26_fill" transform="translate(-793.939 1053.87)" fill="#FFFFFF"/>
</g>
<g id="Vector">
<use xlink:href="#path27_fill" transform="translate(-794.039 1053.77)" fill="#FFFFFF"/>
</g>
<g id="Vector">
<use xlink:href="#path28_fill" transform="translate(-787.77 1054)" fill="#FFFFFF"/>
</g>
<g id="Vector">
<use xlink:href="#path29_fill" transform="translate(-787.87 1053.9)" fill="#FFFFFF"/>
</g>
<g id="Vector">
<use xlink:href="#path30_fill" transform="translate(-783.13 1054)" fill="#FFFFFF"/>
</g>
<g id="Vector">
<use xlink:href="#path31_fill" transform="translate(-783.285 1053.9)" fill="#FFFFFF"/>
</g>
<g id="Vector">
<use xlink:href="#path32_fill" transform="translate(-777.481 1054)" fill="#FFFFFF"/>
</g>
<g id="Vector">
<use xlink:href="#path33_fill" transform="translate(-777.581 1053.9)" fill="#FFFFFF"/>
</g>
<g id="Vector">
<use xlink:href="#path34_fill" transform="translate(-771.766 1054)" fill="#FFFFFF"/>
</g>
<g id="Vector">
<use xlink:href="#path35_fill" transform="translate(-771.866 1053.9)" fill="#FFFFFF"/>
</g>
<g id="Vector">
<use xlink:href="#path36_fill" transform="translate(-766.226 1053.87)" fill="#FFFFFF"/>
</g>
<g id="Vector">
<use xlink:href="#path37_fill" transform="translate(-766.326 1053.77)" fill="#FFFFFF"/>
</g>
<g id="Vector">
<use xlink:href="#path38_fill" transform="translate(-756.906 1054)" fill="#FFFFFF"/>
</g>
<g id="Vector">
<use xlink:href="#path39_fill" transform="translate(-757.006 1053.9)" fill="#FFFFFF"/>
</g>
</g>
</g>
</g>
</g>
</g>
</g>
<defs>
<linearGradient id="paint4_linear" x1="0" y1="0" x2="1" y2="0" gradientUnits="userSpaceOnUse" gradientTransform="matrix(-16.7825 -16.782 -16.7825 16.782 20.2191 -7.29342)">
<stop offset="0" stop-color="#00E3FF"/>
<stop offset="1" stop-color="#00C2FF"/>
</linearGradient>
<linearGradient id="paint5_linear" x1="0" y1="0" x2="1" y2="0" gradientUnits="userSpaceOnUse" gradientTransform="matrix(-24.197 2.17266e-09 2.17272e-09 24.1963 10.9366 -7.96783)">
<stop offset="0" stop-color="#FFDC00"/>
<stop offset="1" stop-color="#FFBB00"/>
</linearGradient>
<linearGradient id="paint6_linear" x1="0" y1="0" x2="1" y2="0" gradientUnits="userSpaceOnUse" gradientTransform="matrix(-22.7583 -22.7576 -22.7583 22.7576 25.7652 -9.08367)">
<stop offset="0" stop-color="#FF3A44"/>
<stop offset="1" stop-color="#FF3A44"/>
</linearGradient>
<linearGradient id="paint7_linear" x1="0" y1="0" x2="1" y2="0" gradientUnits="userSpaceOnUse" gradientTransform="matrix(10.1625 -10.1622 -10.1625 -10.1622 1.87063 -1.88345)">
<stop offset="0" stop-color="#00F076"/>
<stop offset="1" stop-color="#00F076"/>
</linearGradient>
<linearGradient id="paint9_linear" x1="0" y1="0" x2="1" y2="0" gradientUnits="userSpaceOnUse" gradientTransform="matrix(-24.5697 2.17266e-09 2.20619e-09 24.1963 6.91221 -16.3217)">
<stop offset="0" stop-color="#D3AD2A"/>
<stop offset="1" stop-color="#CF892C"/>
</linearGradient>
<linearGradient id="paint10_linear" x1="0" y1="0" x2="1" y2="0" gradientUnits="userSpaceOnUse" gradientTransform="matrix(-22.7583 -22.7576 -22.7583 22.7576 25.7712 -13.2147)">
<stop offset="0" stop-color="#CB5446"/>
<stop offset="1" stop-color="#A93950"/>
</linearGradient>
<linearGradient id="paint12_linear" x1="0" y1="0" x2="1" y2="0" gradientUnits="userSpaceOnUse" gradientTransform="matrix(-16.7825 -16.782 -16.7825 16.782 20.219 -30.5946)">
<stop offset="0" stop-color="#0077B0"/>
<stop offset="1" stop-color="#0092C4"/>
</linearGradient>
<linearGradient id="paint13_linear" x1="0" y1="0" x2="1" y2="0" gradientUnits="userSpaceOnUse" gradientTransform="matrix(-23.1088 -22.7576 -23.1088 22.7576 26.1682 -21.4723)">
<stop offset="0" stop-color="#D95948"/>
<stop offset="1" stop-color="#B23853"/>
</linearGradient>
<linearGradient id="paint15_linear" x1="0" y1="0" x2="1" y2="0" gradientUnits="userSpaceOnUse" gradientTransform="matrix(-24.197 2.17266e-09 2.17272e-09 24.1963 6.8064 -12.0998)">
<stop offset="0" stop-color="#E3BD21"/>
<stop offset="1" stop-color="#DF9527"/>
</linearGradient>
<linearGradient id="paint17_linear" x1="0" y1="0" x2="1" y2="0" gradientUnits="userSpaceOnUse" gradientTransform="matrix(-24.197 2.17266e-09 2.17272e-09 24.1963 6.8064 -7.87496)">
<stop offset="0" stop-color="#FFE25E"/>
<stop offset="1" stop-color="#FDBD59"/>
</linearGradient>
<linearGradient id="paint21_linear" x1="0" y1="0" x2="1" y2="0" gradientUnits="userSpaceOnUse" gradientTransform="matrix(10.1625 -10.1622 -10.1625 -10.1622 1.94359 -1.88345)">
<stop offset="0" stop-color="#A3FFD0"/>
<stop offset="1" stop-color="#5AFFAB"/>
</linearGradient>
<path id="path0_fill" d="M 0 0L 1440 0L 1440 251L 0 251L 0 0Z"/>
<path id="path1_fill" d="M 130 39.9989L 4.99992 39.9989C 2.25 39.9989 0 37.749 0 34.9989L 0 4.99977C 0 2.24993 2.25 0 4.99992 0L 130 0C 132.75 0 135 2.24993 135 4.99977L 135 34.9989C 135 37.749 132.75 39.9989 130 39.9989Z"/>
<path id="path2_fill" d="M 130 4.55967e-11L 4.99992 4.55967e-11C 2.25 4.55967e-11 0 2.24993 0 4.99881L 0 34.9991C 0 37.748 2.25 39.9989 4.99992 39.9989L 130 39.9989C 132.75 39.9989 135 37.748 135 34.9991L 135 4.99881C 135 2.24993 132.75 4.55967e-11 130 4.55967e-11ZM 130 0.798936C 132.316 0.798936 134.2 2.68408 134.2 4.99881L 134.2 34.9991C 134.2 37.3138 132.316 39.199 130 39.199L 4.99992 39.199C 2.68392 39.199 0.79992 37.3138 0.79992 34.9991L 0.79992 4.99881C 0.79992 2.68408 2.68392 0.798936 4.99992 0.798936L 130 0.798936Z"/>
<path id="path3_fill" d="M 65.8951 12.9527L 67.7611 12.9527L 67.7611 0.451187L 65.8951 0.451187L 65.8951 12.9527ZM 82.7021 4.95393L 80.563 10.3737L 80.4991 10.3737L 78.2791 4.95393L 76.2691 4.95393L 79.5982 12.5298L 77.7 16.7426L 79.6471 16.7426L 84.7771 4.95393L 82.7021 4.95393ZM 72.12 11.5317C 71.508 11.5317 70.656 11.2266 70.656 10.4706C 70.656 9.50588 71.718 9.13581 72.6341 9.13581C 73.4551 9.13581 73.8401 9.31292 74.339 9.55387C 74.1941 10.7118 73.1971 11.5317 72.12 11.5317ZM 72.3451 4.68106C 70.9942 4.68106 69.595 5.276 69.0161 6.59476L 70.6721 7.2869C 71.0261 6.59476 71.6851 6.36989 72.377 6.36989C 73.3421 6.36989 74.323 6.94875 74.339 7.97784L 74.339 8.10696C 74.0011 7.91376 73.278 7.62385 72.3931 7.62385C 70.608 7.62385 68.79 8.6047 68.79 10.4387C 68.79 12.1108 70.254 13.1886 71.8939 13.1886C 73.1491 13.1886 73.8401 12.6258 74.275 11.9668L 74.339 11.9668L 74.339 12.9318L 76.14 12.9318L 76.14 8.13888C 76.14 5.91894 74.484 4.68106 72.3451 4.68106ZM 60.8131 6.47597L 58.159 6.47597L 58.159 2.19113L 60.8131 2.19113C 62.208 2.19113 63 3.34598 63 4.33403C 63 5.30288 62.208 6.47597 60.8131 6.47597ZM 60.7651 0.451187L 56.2939 0.451187L 56.2939 12.9527L 58.159 12.9527L 58.159 8.21591L 60.7651 8.21591C 62.833 8.21591 64.866 6.71884 64.866 4.33403C 64.866 1.94802 62.833 0.451187 60.7651 0.451187ZM 36.383 11.5348C 35.095 11.5348 34.015 10.4548 34.015 8.97285C 34.015 7.47482 35.095 6.37997 36.383 6.37997C 37.656 6.37997 38.6551 7.47482 38.6551 8.97285C 38.6551 10.4548 37.656 11.5348 36.383 11.5348ZM 38.526 5.65495L 38.4619 5.65495C 38.0431 5.15481 37.237 4.70386 36.222 4.70386C 34.0961 4.70386 32.1461 6.57292 32.1461 8.97285C 32.1461 11.3577 34.0961 13.2097 36.222 13.2097C 37.237 13.2097 38.0431 12.7587 38.4619 12.2437L 38.526 12.2437L 38.526 12.8557C 38.526 14.4826 37.656 15.3526 36.2539 15.3526C 35.111 15.3526 34.4021 14.5306 34.1119 13.8387L 32.485 14.5145C 32.952 15.6425 34.1921 17.0285 36.2539 17.0285C 38.4461 17.0285 40.2979 15.7397 40.2979 12.5977L 40.2979 4.96185L 38.526 4.96185L 38.526 5.65495ZM 41.587 12.9527L 43.4561 12.9527L 43.4561 0.451187L 41.587 0.451187L 41.587 12.9527ZM 46.211 8.8279C 46.1621 7.18491 47.484 6.34685 48.4339 6.34685C 49.176 6.34685 49.8041 6.71788 50.0131 7.24994L 46.211 8.8279ZM 52.0111 7.41074C 51.6571 6.45989 50.5771 4.70386 48.3701 4.70386C 46.1791 4.70386 44.358 6.42797 44.358 8.95677C 44.358 11.3418 46.1621 13.2097 48.5791 13.2097C 50.5291 13.2097 51.6571 12.0176 52.1242 11.3248L 50.6741 10.3588C 50.191 11.0677 49.53 11.5348 48.5791 11.5348C 47.628 11.5348 46.9519 11.0997 46.517 10.2458L 52.2041 7.89384L 52.0111 7.41074ZM 6.702 6.00894L 6.702 7.81297L 11.0201 7.81297C 10.891 8.8279 10.553 9.56875 10.037 10.0847C 9.40896 10.7128 8.42592 11.4057 6.702 11.4057C 4.044 11.4057 1.96608 9.26276 1.96608 6.60484C 1.96608 3.94692 4.044 1.80403 6.702 1.80403C 8.136 1.80403 9.18312 2.36801 9.95712 3.09303L 11.2291 1.8201C 10.1501 0.789096 8.71608 -6.88456e-07 6.702 -6.88456e-07C 3.06096 -6.88456e-07 -5.27344e-07 2.96391 -5.27344e-07 6.60484C -5.27344e-07 10.2458 3.06096 13.2097 6.702 13.2097C 8.66808 13.2097 10.1501 12.5658 11.31 11.3577C 12.5021 10.1647 12.8731 8.48975 12.8731 7.13691C 12.8731 6.71788 12.84 6.33077 12.7762 6.00894L 6.702 6.00894ZM 17.7811 11.5348C 16.4921 11.5348 15.3811 10.4718 15.3811 8.95677C 15.3811 7.42682 16.4921 6.37997 17.7811 6.37997C 19.0702 6.37997 20.1811 7.42682 20.1811 8.95677C 20.1811 10.4718 19.0702 11.5348 17.7811 11.5348ZM 17.7811 4.70386C 15.4291 4.70386 13.512 6.49181 13.512 8.95677C 13.512 11.4057 15.4291 13.2097 17.7811 13.2097C 20.1331 13.2097 22.05 11.4057 22.05 8.95677C 22.05 6.49181 20.1331 4.70386 17.7811 4.70386ZM 27.0941 11.5348C 25.806 11.5348 24.6941 10.4718 24.6941 8.95677C 24.6941 7.42682 25.806 6.37997 27.0941 6.37997C 28.3831 6.37997 29.495 7.42682 29.495 8.95677C 29.495 10.4718 28.3831 11.5348 27.0941 11.5348ZM 27.0941 4.70386C 24.7421 4.70386 22.825 6.49181 22.825 8.95677C 22.825 11.4057 24.7421 13.2097 27.0941 13.2097C 29.447 13.2097 31.3639 11.4057 31.3639 8.95677C 31.3639 6.49181 29.447 4.70386 27.0941 4.70386Z"/>
<path id="path4_fill" fill-rule="evenodd" d="M 0.53712 24.7771L 0.46296 24.7063C 0.17208 24.3981 -1.83105e-07 23.9203 -1.83105e-07 23.3011L -1.83105e-07 23.4463L -1.83105e-07 1.331C -1.83105e-07 1.3298 -1.83105e-07 1.32788 -1.83105e-07 1.32596L -1.83105e-07 1.47788C -1.83105e-07 0.807816 0.20112 0.301911 0.53592 -2.27044e-07L 12.9259 12.3884L 0.53712 24.7771ZM -1.83105e-07 1.325C -1.83105e-07 1.2698 0.00192032 1.2158 0.00408032 1.16397C 0.00192032 1.2158 -1.83105e-07 1.2698 -1.83105e-07 1.325ZM 0.00503979 1.16085C 0.00503979 1.16085 0.00503979 1.15989 0.00503979 1.15893C 0.00503979 1.15989 0.00503979 1.16085 0.00503979 1.16085ZM 0.00503979 1.15389L 0.00503979 1.15293L 0.00503979 1.15389Z"/>
<path id="path5_fill" fill-rule="evenodd" d="M 4.1292 8.40767L 4.22304 8.35391L 9.11616 5.57383C 9.58296 5.30888 9.894 4.98777 10.049 4.64698C 9.894 4.98777 9.58296 5.30888 9.11616 5.57479L 4.22304 8.35487L 4.1292 8.40767ZM 4.13016 8.26079L -6.88477e-07 4.1298L 4.13016 -5.27328e-07L 9.11616 2.83288C 9.75 3.1919 10.105 3.65605 10.164 4.1298C 10.164 4.1298 10.164 4.131 10.164 4.13196C 10.105 4.60402 9.75 5.06793 9.11616 5.42792L 4.13016 8.26079Z"/>
<path id="path6_fill" fill-rule="evenodd" d="M 0.95112 12.8607C 0.60504 12.8607 0.30408 12.7477 0.0681596 12.5358L 0.0681596 12.5348C 0.30408 12.7477 0.606 12.8607 0.95208 12.8607C 0.98208 12.8607 1.01304 12.8598 1.044 12.8576C 1.01304 12.8598 0.98208 12.8607 0.95112 12.8607ZM 0.95208 12.7139C 0.606 12.7148 0.30408 12.6018 0.0681596 12.3887L 12.457 -4.83384e-07L 16.5871 4.131L 2.07216 12.3788C 1.67112 12.6068 1.29 12.7139 0.95208 12.7139ZM 0.0650404 12.5327C 0.0429604 12.5127 0.0211204 12.4919 3.88184e-07 12.4698L 0.0650404 12.5327Z"/>
<path id="path7_fill" fill-rule="evenodd" d="M 12.39 12.8595L 2.27051e-07 0.471106C 0.23616 0.258952 0.53712 0.145916 0.8832 0.145916C 1.22208 0.145916 1.6032 0.254152 2.0052 0.483106L 16.5202 8.72974L 12.39 12.8595ZM 16.613 8.63686L 2.0052 0.33695C 1.6032 0.107997 1.22208 -6.9578e-08 0.8832 -6.9578e-08C 0.882 -6.9578e-08 0.88008 -6.9578e-08 0.87912 -6.9578e-08C 0.88008 -6.9578e-08 0.882 -6.9578e-08 0.88416 -6.9578e-08C 1.22304 -6.9578e-08 1.6032 0.107997 2.0052 0.33599L 16.613 8.6359L 16.613 8.63686Z"/>
<path id="path8_fill" d="M 1.05 8.57975C 1.36392 8.56175 1.71192 8.45375 2.07816 8.24687L 16.5922 6.15216e-07L 2.07816 8.24687C 1.71192 8.45495 1.36392 8.56295 1.05 8.57975ZM 0.0741596 8.25791L 0.0710404 8.25479C 0.0720004 8.25575 0.0729596 8.25695 0.0741596 8.25791ZM 0.00600039 8.19192L 2.19727e-08 8.18591C 0.00216002 8.18784 0.00408039 8.18976 0.00600039 8.19192Z"/>
<path id="path9_fill" fill-rule="evenodd" d="M -2.52859e-07 0.053759L 0.0952849 8.49584e-07L -2.52859e-07 0.053759Z"/>
<path id="path10_fill" fill-rule="evenodd" d="M 0.95808 8.72974C 0.612 8.72974 0.31008 8.6167 0.0741596 8.40383L 0.0741596 8.40479C 0.0729596 8.40383 0.0720004 8.40263 0.0710404 8.40167L 0.00600039 8.33879C 0.00408039 8.33663 0.00216002 8.33471 2.19727e-08 8.33279L 0.0741596 8.25767C 0.31008 8.47079 0.612 8.58382 0.95808 8.58286C 1.296 8.58286 1.67712 8.47583 2.07816 8.24784L 16.5931 7.324e-07L 16.686 0.0931181L 16.5922 0.146876L 2.07816 8.39375C 1.71192 8.60062 1.36392 8.70862 1.05 8.72662C 1.01904 8.72878 0.98808 8.72974 0.95808 8.72974Z"/>
<path id="path11_fill" d="M 0.46296 1.40588C 0.17208 1.09773 -1.83105e-07 0.619903 -1.83105e-07 0.000961758L -1.83105e-07 -1.34762e-06C -1.83105e-07 0.6199 0.17208 1.09773 0.46296 1.40492L 0.46296 1.40588Z"/>
<path id="path12_fill" fill-rule="evenodd" d="M 0.46296 1.55011C 0.17208 1.24292 -1.83105e-07 0.765096 -1.83105e-07 0.145194L -1.83105e-07 -3.22256e-07C -1.83105e-07 0.619181 0.17208 1.09701 0.46296 1.40516L 0.53712 1.47595L 0.46296 1.55011Z"/>
<path id="path13_fill" fill-rule="evenodd" d="M 2.23111e-08 0.0751168L 2.23111e-08 0.0741574L 0.0753018 -1.78706e-06L 2.23111e-08 0.0751168Z"/>
<path id="path14_fill" d="M 1.69564e-06 0.515984C 0.0782283 0.347989 0.11673 0.173995 0.11673 0.000960133C 0.11673 1.6104e-07 0.117704 6.88456e-07 0.117704 6.88456e-07C 0.117704 0.173996 0.0782283 0.347029 1.69564e-06 0.515984Z"/>
<path id="path15_fill" fill-rule="evenodd" d="M 0.0928795 4.22195L -7.76367e-07 4.12884L 4.986 1.29596C 5.61984 0.935973 5.9748 0.472066 6.03384 1.61128e-07C 6.03384 0.173035 5.99592 0.347029 5.91888 0.515024C 5.76384 0.855814 5.4528 1.17692 4.986 1.44188L 0.0928795 4.22195Z"/>
<path id="path16_fill" d="M 5.94192 4.22363L 5.94096 4.22363C 5.94096 3.70069 5.592 3.17774 4.89312 2.7808L -5.27344e-07 0.000959195L -5.27344e-07 -2.49016e-07L 4.89312 2.7808C 5.592 3.17774 5.94192 3.70069 5.94192 4.22363Z"/>
<path id="path17_fill" fill-rule="evenodd" d="M 6.03384 4.22267C 5.9748 3.74893 5.61984 3.28478 4.986 2.92575L -7.76367e-07 0.0928767L 0.0928795 -7.76344e-07L 4.986 2.77984C 5.68488 3.17678 6.03384 3.69973 6.03384 4.22267Z"/>
<path id="path18_fill" d="M -1.83105e-07 1.79707L -1.83105e-07 1.79611L -1.83105e-07 1.79707ZM 0.00408032 1.63507C 0.00504032 1.63411 0.00503979 1.63291 0.00503979 1.63195C 0.00503979 1.63291 0.00504032 1.63411 0.00408032 1.63507ZM 0.00503979 1.63003C 0.00503979 1.62907 0.00503979 1.62691 0.00503979 1.62499C 0.00503979 1.62691 0.00503979 1.62907 0.00503979 1.63003ZM 0.00503979 1.62403C 0.0628798 0.597102 0.62112 0.00407981 1.41096 -6.9578e-08C 1.06896 0.00215987 0.77112 0.113997 0.53712 0.32495L 0.534 0.32807C 0.51 0.35015 0.486 0.372949 0.46296 0.396948C 0.20112 0.6751 0.0350398 1.09101 0.00503979 1.62403Z"/>
<path id="path19_fill" fill-rule="evenodd" d="M -1.83105e-07 1.62403L -1.83105e-07 1.47812C -1.83105e-07 1.47596 -1.83105e-07 1.47404 -1.83105e-07 1.47212L -1.83105e-07 1.47116C -1.83105e-07 1.41596 0.00192032 1.36196 0.00408032 1.31012C 0.00504032 1.30916 0.00503979 1.30796 0.00503979 1.307C 0.00503979 1.307 0.00503979 1.30604 0.00503979 1.30508C 0.00503979 1.30412 0.00503979 1.30196 0.00503979 1.30004L 0.00503979 1.29908C 0.0350398 0.766057 0.20112 0.35015 0.46296 0.0719981L 0.53592 0.146155C 0.20112 0.448066 -1.83105e-07 0.953972 -1.83105e-07 1.62403ZM 0.534 0.00311998L 0.53712 -4.7606e-08C 0.53592 0.000959924 0.53496 0.00216001 0.534 0.00311998Z"/>
<path id="path20_fill" d="M 2.07588e-07 -2.89917e-07C 0.000971955 -2.89917e-07 0.00218622 -2.89917e-07 0.00412972 -2.89917e-07C 0.00218622 -2.89917e-07 0.000971955 -2.89917e-07 2.07588e-07 -2.89917e-07Z"/>
<path id="path21_fill" fill-rule="evenodd" d="M 16.5931 8.72974L 2.07816 0.483106C 1.67616 0.254152 1.29504 0.145916 0.95616 0.145916C 0.61008 0.145916 0.30912 0.258952 0.0729602 0.471106L 2.19727e-08 0.396948C 0.02304 0.372949 0.0470404 0.35015 0.0710404 0.32807C 0.0720004 0.32711 0.0729596 0.32591 0.0741596 0.32495C 0.30816 0.113997 0.606 0.00215987 0.948 -6.9578e-08L 0.95616 -6.9578e-08C 1.29504 -6.9578e-08 1.67616 0.107997 2.07816 0.33695L 16.686 8.63686L 16.5931 8.72974Z"/>
<path id="path22_fill" d="M 2.11992 2.96679C 2.13192 3.91572 1.94112 4.68178 1.55088 5.2628L 4.584 5.2628L 4.584 0.737978L 2.11992 0.737978L 2.11992 2.96679ZM 0.737038 7.2737L -1.46484e-06 7.2737L -1.46484e-06 5.2628L 0.587038 5.2628C 1.10592 4.8157 1.36008 4.05084 1.35 2.96679L 1.35 -4.3944e-08L 5.35488 -4.3944e-08L 5.35488 5.2628L 6.02496 5.2628L 6.02496 7.2737L 5.28792 7.2737L 5.28792 5.99982L 0.737038 5.99982L 0.737038 7.2737Z"/>
<path id="path23_fill" d="M 2.22 3.06687L 2.12016 3.06783L 2.12112 3.14895C 2.12112 4.04676 1.93296 4.76386 1.56816 5.30696L 1.46304 5.46272L 4.78416 5.46272L 4.78416 0.737978L 2.12016 0.737978L 2.12016 3.06783L 2.22 3.06687L 2.32008 3.06687L 2.32008 0.937892L 4.584 0.937892L 4.584 5.2628L 1.65096 5.2628L 1.65096 5.36288L 1.734 5.4188C 2.12712 4.83394 2.32104 4.07388 2.32104 3.14895L 2.32008 3.06591L 2.22 3.06687L 2.32008 3.06687L 2.22 3.06687ZM 0.837118 7.37378L 0.837118 7.2737L 0.20016 7.2737L 0.20016 5.46272L 0.72408 5.46272L 0.752161 5.43896C 1.29312 4.97289 1.55016 4.19579 1.55016 3.13287L 1.55016 3.06591L 1.55016 3.06687L 1.55016 0.199914L 5.35512 0.199914L 5.35512 5.46272L 6.02496 5.46272L 6.02496 7.2737L 5.48808 7.2737L 5.48808 6.0999L 5.48808 5.99982L 0.73704 5.99982L 0.73704 7.37378L 0.837118 7.37378L 0.837118 7.2737L 0.837118 7.37378L 0.9372 7.37378L 0.9372 6.19973L 5.28816 6.19973L 5.28816 7.47386L 6.22512 7.47386L 6.22512 5.2628L 5.55504 5.2628L 5.55504 8.52626e-16L 1.35 8.52626e-16L 1.35 3.13287C 1.35 4.16796 1.0992 4.87689 0.622079 5.2868L 0.687118 5.36288L 0.687118 5.2628L 0.100079 5.2628L 4.10156e-07 5.2628L 4.10156e-07 7.47386L 0.9372 7.47386L 0.9372 7.37378L 0.837118 7.37378Z"/>
<path id="path24_fill" d="M 1.45296 4.85698C 1.89696 5.306 2.43984 5.53088 3.08304 5.53088C 3.72504 5.53088 4.26888 5.306 4.71288 4.85698C 5.15688 4.40699 5.38008 3.83293 5.38008 3.13407C 5.38008 2.43593 5.15688 1.8621 4.71288 1.41212C 4.26888 0.963091 3.72504 0.737978 3.08304 0.737978C 2.43984 0.737978 1.89696 0.963091 1.45296 1.41212C 1.00992 1.8621 0.786959 2.43593 0.786959 3.13407C 0.786959 3.83293 1.00992 4.40699 1.45296 4.85698ZM 5.28288 5.3588C 4.69296 5.96598 3.96 6.26789 3.08304 6.26789C 2.20608 6.26789 1.47288 5.96598 0.883921 5.3588C 0.294001 4.75282 1.25977e-06 4.011 1.25977e-06 3.13407C 1.25977e-06 2.25713 0.294001 1.51604 0.883921 0.910053C 1.47288 0.303111 2.20608 -4.7606e-08 3.08304 -4.7606e-08C 3.95496 -4.7606e-08 4.686 0.305031 5.27904 0.914133C 5.87088 1.52299 6.16704 2.26313 6.16704 3.13407C 6.16704 4.011 5.87184 4.75282 5.28288 5.3588Z"/>
<path id="path25_fill" d="M 1.55304 4.95682L 1.482 5.02665C 1.94304 5.49488 2.51712 5.73175 3.18312 5.73079C 3.84912 5.73175 4.42416 5.49488 4.884 5.02665C 5.34696 4.55891 5.58096 3.95389 5.58 3.23391C 5.58096 2.51489 5.34696 1.90987 4.884 1.44188C 4.42416 0.973895 3.84912 0.736781 3.18312 0.737981C 2.51712 0.736781 1.94304 0.973895 1.482 1.44188C 1.01904 1.90987 0.786003 2.51489 0.786963 3.23391C 0.786003 3.95389 1.01904 4.55891 1.482 5.02665L 1.55304 4.95682L 1.62408 4.88578C 1.2 4.45475 0.988083 3.91189 0.987123 3.23391C 0.988083 2.55689 1.2 2.01378 1.62408 1.5818L 1.62408 1.58276C 2.052 1.15077 2.56416 0.938855 3.18312 0.937895C 3.80208 0.938855 4.31496 1.15077 4.74192 1.5818L 4.74312 1.58396L 4.74192 1.58276C 5.16696 2.01378 5.37912 2.55689 5.38008 3.23391C 5.37912 3.91189 5.16696 4.45475 4.74192 4.88578C 4.31496 5.31776 3.80208 5.52968 3.18312 5.53088C 2.56416 5.52968 2.052 5.31776 1.62408 4.88578L 1.55304 4.95682ZM 5.38296 5.45864L 5.31096 5.3888C 4.73808 5.97678 4.03704 6.2667 3.18312 6.26766C 2.32896 6.2667 1.62816 5.97678 1.05504 5.3888C 0.483121 4.79986 0.201124 4.08876 0.199924 3.23391C 0.201124 2.37977 0.483121 1.66891 1.05504 1.07997C 1.62816 0.491989 2.32896 0.200877 3.18312 0.199917C 4.032 0.200877 4.73112 0.492949 5.30808 1.08381C 5.88192 1.67587 6.16608 2.38481 6.16704 3.23391C 6.16608 4.08876 5.88312 4.79986 5.31096 5.3888L 5.45496 5.52872C 6.06096 4.9057 6.36816 4.13388 6.36696 3.23391C 6.36816 2.33993 6.06 1.5698 5.45112 0.943895C 4.842 0.317034 4.07808 -0.0011967 3.18312 3.26839e-06C 2.28312 -0.0011967 1.518 0.314874 0.912003 0.939816C 0.304082 1.56284 -0.000958269 2.33489 1.73149e-06 3.23391C -0.000958269 4.13388 0.304082 4.9057 0.912003 5.52872C 1.518 6.15366 2.28312 6.46877 3.18312 6.46781C 4.08312 6.46877 4.848 6.15366 5.45496 5.52872L 5.38296 5.45864Z"/>
<path id="path26_fill" d="M 3.11808 6.26789C 2.23488 6.26789 1.49496 5.96886 0.896881 5.372C 0.298081 4.77394 1.25977e-06 4.02804 1.25977e-06 3.13407C 1.25977e-06 2.24105 0.298081 1.49516 0.896881 0.897093C 1.49496 0.299031 2.23488 -4.7606e-08 3.11808 -4.7606e-08C 4.02192 -4.7606e-08 4.75704 0.32711 5.322 0.981091L 4.78488 1.50116C 4.37808 0.99213 3.82104 0.737978 3.11808 0.737978C 2.46288 0.737978 1.91184 0.959012 1.46208 1.40012C 1.01184 1.84099 0.787919 2.42009 0.787919 3.13407C 0.787919 3.84901 1.01184 4.42787 1.46208 4.86897C 1.91184 5.30984 2.46288 5.53088 3.11808 5.53088C 3.83808 5.53088 4.45296 5.24096 4.96104 4.65994L 5.49792 5.19585C 5.22288 5.52584 4.87992 5.78695 4.46592 5.97894C 4.05288 6.1719 3.60288 6.26789 3.11808 6.26789Z"/>
<path id="path27_fill" d="M 3.21816 6.36773L 3.21816 6.26766C 2.35704 6.2667 1.64808 5.97966 1.068 5.4008C 0.487919 4.82074 0.202079 4.1058 0.201119 3.23391C 0.202079 2.36297 0.487919 1.64779 1.068 1.06797C 1.64808 0.487908 2.35704 0.200877 3.21816 0.199917C 4.098 0.201837 4.79808 0.512868 5.346 1.14597L 5.42208 1.08093L 5.352 1.00893L 4.81512 1.52876L 4.88496 1.601L 4.96296 1.53788C 4.53912 1.00581 3.94512 0.735822 3.21816 0.737981C 2.54112 0.736781 1.95792 0.968854 1.49208 1.42892C 1.02216 1.88875 0.786959 2.49881 0.788159 3.23391C 0.786959 3.96972 1.02216 4.57979 1.49208 5.03985C 1.95792 5.49872 2.54112 5.73175 3.21816 5.73079C 3.966 5.73175 4.614 5.4248 5.13696 4.82578L 5.06112 4.75978L 4.99104 4.83082L 5.52696 5.36672L 5.598 5.29569L 5.52096 5.23185C 5.256 5.54984 4.926 5.80183 4.524 5.98782C 4.12512 6.17478 3.69 6.26766 3.21816 6.26766L 3.21816 6.46781C 3.71616 6.46781 4.182 6.36869 4.60896 6.16974C 5.03496 5.97175 5.39112 5.70079 5.67408 5.35976L 5.73312 5.28969L 5.13216 4.68874L 5.05704 4.61387L 4.986 4.69378C 4.49208 5.25681 3.91104 5.52968 3.21816 5.53088C 2.586 5.52968 2.06496 5.32088 1.63296 4.89682L 1.632 4.89682C 1.20312 4.47491 0.989041 3.92869 0.988081 3.23391C 0.989041 2.53985 1.20312 1.99386 1.632 1.571L 1.63296 1.571C 2.06496 1.14789 2.586 0.938855 3.21816 0.937895C 3.89712 0.939815 4.416 1.17789 4.80696 1.66291L 4.87512 1.74883L 5.49096 1.15197L 5.55912 1.08693L 5.49792 1.01493C 4.91712 0.339834 4.146 -0.00119664 3.21816 3.32333e-06C 2.31216 -0.00119664 1.54104 0.309834 0.926162 0.925896C 0.309122 1.54076 -5.27344e-07 2.31881 -5.27344e-07 3.23391C -5.27344e-07 4.14972 0.309122 4.92778 0.926162 5.54264C 1.54104 6.15774 2.31216 6.46877 3.21816 6.46781L 3.21816 6.36773Z"/>
<path id="path28_fill" d="M 2.44704 5.99982L 1.67496 5.99982L 1.67496 0.737978L -6.82121e-15 0.737978L -6.82121e-15 -4.3944e-08L 4.12296 -4.3944e-08L 4.12296 0.737978L 2.44704 0.737978L 2.44704 5.99982Z"/>
<path id="path29_fill" d="M 2.54712 6.0999L 2.54712 5.99982L 1.87512 5.99982L 1.87512 0.737978L 0.200162 0.737978L 0.200162 0.199914L 4.12296 0.199914L 4.12296 0.737978L 2.44704 0.737978L 2.44704 6.0999L 2.54712 6.0999L 2.54712 5.99982L 2.54712 6.0999L 2.6472 6.0999L 2.6472 0.937892L 4.32312 0.937892L 4.32312 0.100077L 4.32312 0L -1.78711e-06 0L -1.78711e-06 0.937892L 1.6752 0.937892L 1.6752 6.19974L 2.6472 6.19974L 2.6472 6.0999L 2.54712 6.0999Z"/>
<path id="path30_fill" d="M 4.776 -4.3944e-08L 2.50608 5.06169C 2.19216 5.77687 1.72704 6.13374 1.10712 6.13374C 0.922083 6.13374 0.724081 6.08982 0.510961 5.99982L 0.712077 5.28776C 0.840957 5.36072 0.975121 5.39672 1.11408 5.39672C 1.29312 5.39672 1.43208 5.36168 1.52904 5.29184C 1.6272 5.22272 1.71816 5.09481 1.80216 4.91073L 2.02008 4.43267L 1.875e-06 -4.3944e-08L 0.905041 -4.3944e-08L 2.388 3.44486L 2.42208 3.44486L 3.87096 -4.3944e-08L 4.776 -4.3944e-08Z"/>
<path id="path31_fill" d="M 4.93104 0.100077L 4.84008 0.0599982L 2.5692 5.12073L 2.5692 5.12193C 2.26008 5.81479 1.83912 6.13086 1.26216 6.13374C 1.0932 6.13374 0.90816 6.0939 0.70512 6.00774L 0.666001 6.0999L 0.762 6.12774L 0.963123 5.41472L 0.867117 5.38784L 0.818162 5.47496C 0.960242 5.55583 1.11216 5.59687 1.26912 5.59687C 1.46016 5.59687 1.62 5.56087 1.74312 5.47376C 1.86312 5.38688 1.95912 5.2448 2.04816 5.05281L 2.26608 4.57474L 2.28504 4.53274L 0.31104 0.199914L 0.995042 0.199914L 2.47824 3.64477L 2.64312 3.64477L 4.092 0.199914L 4.93104 0.199914L 4.93104 0.100077L 4.84008 0.0599982L 4.93104 0.100077L 4.93104 -5.11576e-15L 4.026 -5.11576e-15L 3.95904 -5.11576e-15L 2.484 3.50582L 2.57712 3.54493L 2.57712 3.44486L 2.54304 3.44486L 2.54304 3.54493L 2.6352 3.50486L 1.12608 -5.11576e-15L 0.155042 -5.11576e-15L 2.8125e-06 -5.11576e-15L 2.0652 4.53274L 1.86624 4.96977C 1.78608 5.14473 1.70112 5.25776 1.62624 5.3108C 1.55304 5.36384 1.43616 5.39696 1.26912 5.39696C 1.1472 5.39696 1.03224 5.36576 0.916079 5.30096L 0.805198 5.23784L 0.570237 6.07278L 0.546243 6.15774L 0.627117 6.19278C 0.849117 6.28589 1.06104 6.33389 1.26216 6.33389C 1.92504 6.33677 2.43408 5.9379 2.75208 5.20184L 2.75208 5.20281L 5.08512 -5.11576e-15L 4.93104 -5.11576e-15L 4.93104 0.100077Z"/>
<path id="path32_fill" d="M 5.27344e-07 5.99982L 5.27344e-07 -4.3944e-08L 4.34088 -4.3944e-08L 4.34088 5.99982L 3.56904 5.99982L 3.56904 0.737978L 0.770882 0.737978L 0.770882 5.99982L 5.27344e-07 5.99982Z"/>
<path id="path33_fill" d="M 0.100081 6.0999L 0.200159 6.0999L 0.200159 0.199914L 4.34112 0.199914L 4.34112 5.99982L 3.76896 5.99982L 3.76896 0.737978L 0.771118 0.737978L 0.771118 5.99982L 0.100081 5.99982L 0.100081 6.0999L 0.200159 6.0999L 0.100081 6.0999L 0.100081 6.19974L 0.97104 6.19974L 0.97104 0.937892L 3.56904 0.937892L 3.56904 6.19974L 4.54104 6.19974L 4.54104 0L 2.40234e-06 0L 2.40234e-06 6.19974L 0.100081 6.19974L 0.100081 6.0999Z"/>
<path id="path34_fill" d="M 3.33984e-06 5.99982L 3.33984e-06 -4.3944e-08L 0.770159 -4.3944e-08L 0.770159 2.57296L 3.77016 2.57296L 3.77016 -4.3944e-08L 4.542 -4.3944e-08L 4.542 5.99982L 3.77016 5.99982L 3.77016 3.2927L 0.770159 3.2927L 0.770159 5.99982L 3.33984e-06 5.99982Z"/>
<path id="path35_fill" d="M 0.0998434 6.0999L 0.199921 6.0999L 0.199921 0.199914L 0.769922 0.199914L 0.769922 2.77288L 3.96984 2.77288L 3.96984 0.199914L 4.542 0.199914L 4.542 5.99982L 3.96984 5.99982L 3.96984 3.29294L 0.769922 3.29294L 0.769922 5.99982L 0.0998434 5.99982L 0.0998434 6.0999L 0.199921 6.0999L 0.0998434 6.0999L 0.0998434 6.19974L 0.969843 6.19974L 0.969843 3.49286L 3.76992 3.49286L 3.76992 6.19974L 4.74192 6.19974L 4.74192 0L 3.87 0L 3.76992 0L 3.76992 2.57296L 0.969843 2.57296L 0.969843 0L 0.0998434 0L -4.10156e-07 0L -4.10156e-07 6.19974L 0.0998434 6.19974L 0.0998434 6.0999Z"/>
<path id="path36_fill" d="M 1.45296 4.85698C 1.89696 5.306 2.43984 5.53088 3.08304 5.53088C 3.726 5.53088 4.26888 5.306 4.71288 4.85698C 5.15688 4.40699 5.37984 3.83293 5.37984 3.13407C 5.37984 2.43593 5.15688 1.8621 4.71288 1.41212C 4.26888 0.963091 3.726 0.737978 3.08304 0.737978C 2.43984 0.737978 1.89696 0.963091 1.45296 1.41212C 1.00992 1.8621 0.786958 2.43593 0.786958 3.13407C 0.786958 3.83293 1.00992 4.40699 1.45296 4.85698ZM 5.28288 5.3588C 4.69296 5.96598 3.96 6.26789 3.08304 6.26789C 2.20584 6.26789 1.47288 5.96598 0.883923 5.3588C 0.294003 4.75282 -4.10156e-07 4.011 -4.10156e-07 3.13407C -4.10156e-07 2.25713 0.294003 1.51604 0.883923 0.910053C 1.47288 0.303111 2.20584 -4.7606e-08 3.08304 -4.7606e-08C 3.95496 -4.7606e-08 4.686 0.305031 5.27904 0.914133C 5.87088 1.52299 6.16704 2.26313 6.16704 3.13407C 6.16704 4.011 5.87184 4.75282 5.28288 5.3588Z"/>
<path id="path37_fill" d="M 1.55305 4.95682L 1.482 5.02665C 1.94304 5.49488 2.51712 5.73175 3.18312 5.73079C 3.84912 5.73175 4.42392 5.49488 4.88401 5.02665C 5.34793 4.55891 5.58096 3.95389 5.58 3.23391C 5.58096 2.51489 5.34793 1.90987 4.88401 1.44188C 4.42392 0.973895 3.84912 0.736781 3.18312 0.737981C 2.51712 0.736781 1.94304 0.973895 1.482 1.44188C 1.01904 1.90987 0.786002 2.51489 0.786962 3.23391C 0.786002 3.95389 1.01904 4.55891 1.482 5.02665L 1.55305 4.95682L 1.62408 4.88578C 1.2 4.45475 0.988085 3.91189 0.987125 3.23391C 0.988085 2.55689 1.2 2.01378 1.62408 1.5818L 1.62408 1.58276C 2.052 1.15077 2.56392 0.938855 3.18312 0.937895C 3.80208 0.938855 4.31496 1.15077 4.74192 1.5818L 4.74504 1.58588L 4.74192 1.58276C 5.16696 2.01378 5.37912 2.55689 5.38008 3.23391C 5.37912 3.91189 5.16696 4.45475 4.74192 4.88578C 4.31496 5.31776 3.80208 5.52968 3.18312 5.53088C 2.56392 5.52968 2.052 5.31776 1.62408 4.88578L 1.55305 4.95682ZM 5.38296 5.45864L 5.31096 5.3888C 4.73808 5.97678 4.03704 6.2667 3.18312 6.26766C 2.32896 6.2667 1.62792 5.97678 1.05504 5.3888L 1.05288 5.38664L 1.05504 5.3888C 0.482883 4.79986 0.200886 4.08876 0.199926 3.23391C 0.200886 2.37977 0.482883 1.66891 1.05504 1.07997C 1.62792 0.491989 2.32896 0.200877 3.18312 0.199917C 4.032 0.200877 4.73088 0.492949 5.30808 1.08381C 5.88192 1.67587 6.16608 2.38481 6.16704 3.23391C 6.16608 4.08876 5.88288 4.79986 5.31096 5.3888L 5.45496 5.52872C 6.06096 4.9057 6.36792 4.13388 6.36696 3.23391C 6.36792 2.33993 6.06001 1.5698 5.45088 0.943895C 4.842 0.317034 4.07808 -0.0011967 3.18312 3.26839e-06C 2.28312 -0.0011967 1.518 0.314874 0.912001 0.939816C 0.305041 1.56284 -0.000956283 2.33489 3.71663e-06 3.23391C -0.000956283 4.13388 0.305041 4.9057 0.912001 5.52872C 1.518 6.15366 2.28312 6.46877 3.18312 6.46781C 4.08312 6.46877 4.848 6.15366 5.45496 5.52872L 5.38296 5.45864Z"/>
<path id="path38_fill" d="M 0.769923 5.2628L 2.32104 5.2628C 2.61696 5.2628 2.85696 5.15985 3.042 4.95273C 3.22608 4.74682 3.318 4.51978 3.318 4.27379C 3.318 4.0278 3.22296 3.80389 3.03288 3.59989C 2.844 3.3959 2.59392 3.2927 2.28696 3.2927L 0.769923 3.2927L 0.769923 5.2628ZM 0.769923 2.57296L 2.17008 2.57296C 2.46096 2.57296 2.694 2.47697 2.86992 2.28377C 3.04608 2.09082 3.13392 1.87986 3.13392 1.65091C 3.13392 1.42196 3.04896 1.21196 2.87808 1.02285C 2.70792 0.833015 2.48304 0.737978 2.20392 0.737978L 0.769923 0.737978L 0.769923 2.57296ZM 1.46484e-06 5.99982L 1.46484e-06 -4.3944e-08L 2.17008 -4.3944e-08C 2.63904 -4.3944e-08 3.04608 0.155995 3.38904 0.464866C 3.73296 0.775897 3.90504 1.16492 3.90504 1.63387C 3.90504 1.91874 3.83112 2.17097 3.68208 2.38889C 3.53496 2.6068 3.33792 2.77072 3.09192 2.88279L 3.09192 2.91591C 3.38712 3.01671 3.63096 3.18975 3.82104 3.43574C 4.00992 3.68173 4.10592 3.96684 4.10592 4.29083C 4.10592 4.78282 3.92592 5.18984 3.56496 5.51383C 3.20496 5.83783 2.77896 5.99982 2.28696 5.99982L 1.46484e-06 5.99982Z"/>
<path id="path39_fill" d="M 0.870003 5.36288L 0.870003 5.46272L 2.42112 5.46272C 2.74008 5.46392 3.01512 5.3468 3.216 5.11881C 3.414 4.89873 3.51912 4.64482 3.51816 4.37387C 3.51912 4.10196 3.41016 3.84901 3.20616 3.63085C 2.99904 3.40694 2.71608 3.29198 2.38704 3.29294L 0.77016 3.29294L 0.77016 5.46272L 0.870003 5.46272L 0.870003 5.36288L 0.970081 5.36288L 0.970081 3.49286L 2.38704 3.49286C 2.67312 3.49502 2.88816 3.58501 3.06 3.76789C 3.23616 3.95796 3.31704 4.155 3.318 4.37387C 3.31704 4.5949 3.23808 4.79386 3.06696 4.98585C 2.90016 5.17185 2.694 5.26184 2.42112 5.2628L 0.870003 5.2628L 0.870003 5.36288L 0.970081 5.36288L 0.870003 5.36288ZM 0.870003 2.67304L 0.870003 2.77288L 2.27016 2.77288C 2.58216 2.77384 2.85 2.66584 3.04416 2.45105C 3.23304 2.24489 3.33408 2.00706 3.33408 1.75099C 3.33408 1.49684 3.23712 1.25996 3.05208 1.05597C 2.86512 0.845015 2.60496 0.736058 2.304 0.737978L 0.77016 0.737978L 0.77016 2.77288L 0.870003 2.77288L 0.870003 2.67304L 0.970081 2.67304L 0.970081 0.937892L 2.304 0.937892C 2.56104 0.939092 2.75112 1.02093 2.90304 1.18988L 2.904 1.18988L 2.90304 1.18988C 3.06 1.36484 3.13296 1.54795 3.13416 1.75099C 3.13296 1.95402 3.05808 2.13786 2.89608 2.31593C 2.73816 2.48801 2.53896 2.57104 2.27016 2.57296L 0.870003 2.57296L 0.870003 2.67304L 0.970081 2.67304L 0.870003 2.67304ZM 0.100081 6.0999L 0.20016 6.0999L 0.20016 0.199914L 2.27016 0.199914C 2.71704 0.201114 3.09504 0.34607 3.42216 0.640061L 3.42216 0.639101C 3.74712 0.934052 3.90408 1.28996 3.90504 1.73395C 3.90504 2.00202 3.83616 2.23097 3.70008 2.43185L 3.70008 2.43305C 3.56208 2.63584 3.38112 2.78704 3.15 2.89191L 3.09216 2.91903L 3.09216 3.08799L 3.15912 3.11103C 3.438 3.20582 3.66312 3.3659 3.84216 3.59701L 3.84312 3.59797L 3.84216 3.59701C 4.01808 3.82693 4.10616 4.08684 4.10616 4.39091C 4.10496 4.85794 3.93912 5.23184 3.59808 5.53975C 3.25416 5.84791 2.85696 5.99982 2.38704 5.99982L 0.100081 5.99982L 0.100081 6.0999L 0.20016 6.0999L 0.100081 6.0999L 0.100081 6.19974L 2.38704 6.19974C 2.90112 6.20093 3.35496 6.0279 3.732 5.68783C 4.11216 5.34896 4.30704 4.90689 4.30608 4.39091C 4.30704 4.04796 4.20312 3.73789 4.00008 3.47486L 3.99912 3.4739L 4.00008 3.47486C 3.79896 3.21398 3.53712 3.02799 3.22416 2.92191L 3.192 3.01599L 3.29208 3.01599L 3.29208 2.98287L 3.192 2.98287L 3.23304 3.07383C 3.49416 2.95599 3.708 2.77792 3.8652 2.54488C 4.02504 2.30993 4.10496 2.03706 4.10496 1.73395C 4.10616 1.241 3.92016 0.817895 3.55608 0.491025L 3.55416 0.488866L 3.55608 0.491025C 3.19608 0.166075 2.76096 1.70525e-15 2.27016 1.70525e-15L 3.33984e-06 1.70525e-15L 3.33984e-06 6.19974L 0.100081 6.19974L 0.100081 6.0999Z"/>
</defs>
</svg>
