<svg width="17" height="11" viewBox="0 0 17 11" version="1.1" xmlns="http://www.w3.org/2000/svg" xmlns:xlink="http://www.w3.org/1999/xlink">
<title>Vector</title>
<desc>Created using Figma</desc>
<g id="Canvas" transform="translate(1082 352)">
<g id="Vector">
<use xlink:href="#path0_fill" transform="translate(-1082 -352)" fill="#FFFFFF"/>
</g>
</g>
<defs>
<path id="path0_fill" d="M 17 4.71429L 15.4545 4.71429L 15.4545 3.14286L 13.9091 3.14286L 13.9091 4.71429L 12.3636 4.71429L 12.3636 6.28571L 13.9091 6.28571L 13.9091 7.85714L 15.4545 7.85714L 15.4545 6.28571L 17 6.28571L 17 4.71429ZM 5.40909 4.71429L 5.40909 6.6L 8.5 6.6C 8.34545 7.38571 7.57273 8.95714 5.40909 8.95714C 3.55455 8.95714 2.08636 7.38571 2.08636 5.5C 2.08636 3.61429 3.55455 2.04286 5.40909 2.04286C 6.49091 2.04286 7.18636 2.51429 7.57273 2.90714L 9.04091 1.49286C 8.11364 0.55 6.87727 0 5.40909 0C 2.39545 0 0 2.43571 0 5.5C 0 8.56429 2.39545 11 5.40909 11C 8.5 11 10.5864 8.8 10.5864 5.65714C 10.5864 5.26429 10.5864 5.02857 10.5091 4.71429L 5.40909 4.71429Z"/>
</defs>
</svg>
