<svg width="52" height="40" viewBox="0 0 52 40" version="1.1" xmlns="http://www.w3.org/2000/svg" xmlns:xlink="http://www.w3.org/1999/xlink">
<title>Mastercard</title>
<desc>Created using Figma</desc>
<g id="Canvas" transform="translate(-83 -2005)">
<g id="Mastercard">
<g id="Group">
<g id="Subtract">
<use xlink:href="#path0_fill" transform="translate(85.6741 2038.96)" fill="#BDBDBD"/>
</g>
<g id="Ellipse 3">
<use xlink:href="#path1_fill" transform="translate(83.0025 2005)" fill="#BDBDBD"/>
</g>
<g id="Ellipse 3">
<use xlink:href="#path1_fill" transform="translate(103.001 2005)" fill="#BDBDBD"/>
</g>
<g id="Intersect">
<use xlink:href="#path2_fill" transform="translate(103.001 2008.51)" fill="#BDBDBD"/>
</g>
</g>
<g id="Intersect">
<use xlink:href="#path3_fill" transform="translate(103.001 2008.51)" fill="#DBDBDB"/>
</g>
</g>
</g>
<defs>
<path id="path0_fill" fill-rule="evenodd" d="M 35.7325 5.17151C 36.4964 5.17151 37.0084 4.58752 37.0084 3.81567C 37.0084 3.04773 36.4924 2.46375 35.7325 2.45972C 34.9366 2.45972 34.4486 3.07166 34.4486 3.81567C 34.4486 4.55957 34.9366 5.17151 35.7325 5.17151ZM 5.04751 1.5918C 6.07541 1.60388 6.71134 2.27576 6.71134 3.27563L 6.71134 5.92737L 5.77544 5.92737L 5.77544 3.57166C 5.77544 2.85571 5.47546 2.45581 4.84753 2.45581C 4.23559 2.45581 3.81163 2.84375 3.81163 3.57971L 3.81163 5.92737L 2.88372 5.92737L 2.88372 3.57166C 2.88372 2.85571 2.57575 2.45581 1.96381 2.45581C 1.33587 2.45581 0.92791 2.84375 0.92791 3.57971L 0.92791 5.92737L 0 5.92737L 0 1.6958L 0.919907 1.6958L 0.919907 2.21973C 1.26388 1.72388 1.70783 1.5918 2.15979 1.5918C 2.80772 1.5918 3.26768 1.87585 3.55965 2.34375C 3.95161 1.75183 4.50756 1.58386 5.04751 1.5918ZM 10.9789 1.69983L 11.8988 1.69983L 11.8988 5.9314L 10.9789 5.9314L 10.9789 5.41943C 10.687 5.79944 10.247 6.03943 9.64306 6.03943C 8.45518 6.03943 7.52727 5.11145 7.52727 3.81567C 7.52727 2.51978 8.45518 1.5918 9.64306 1.5918C 10.243 1.5918 10.687 1.83179 10.9789 2.21179L 10.9789 1.69983ZM 15.0745 3.39172C 15.9984 3.52771 16.5544 3.91565 16.5544 4.65955C 16.5544 5.4635 15.8465 6.03943 14.6266 6.03943C 13.9346 6.03943 13.2987 5.8634 12.7948 5.48743L 13.2267 4.77148C 13.5387 5.01147 13.9986 5.21545 14.6346 5.21545C 15.2625 5.21545 15.5985 5.03149 15.5985 4.70349C 15.5985 4.46362 15.3585 4.33154 14.8545 4.25964L 14.4226 4.19556C 13.4747 4.0636 12.9627 3.63965 12.9627 2.94775C 12.9627 2.10376 13.6507 1.5918 14.7226 1.5918C 15.3985 1.5918 16.0064 1.74377 16.4504 2.03577L 16.0504 2.77979C 15.7945 2.61975 15.2705 2.41577 14.7306 2.41577C 14.2266 2.41577 13.9266 2.59973 13.9266 2.91174C 13.9266 3.19568 14.2426 3.27563 14.6426 3.32764L 15.0745 3.39172ZM 20.39 4.92358L 20.654 5.71143C 20.362 5.91541 19.9021 6.03943 19.5021 6.04346C 18.4142 6.04346 18.0342 5.45947 18.0342 4.47559L 18.0342 2.5437L 17.1743 2.5437L 17.1743 1.70386L 18.0342 1.70386L 18.0342 0.419922L 18.9622 0.419922L 18.9622 1.70386L 20.466 1.70386L 20.466 2.5437L 18.9622 2.5437L 18.9622 4.45557C 18.9622 4.87952 19.1141 5.16345 19.5741 5.16345C 19.8141 5.16345 20.114 5.0835 20.39 4.92358ZM 23.3337 1.5918C 24.5216 1.5918 25.3375 2.49573 25.3455 3.81567L 25.3215 4.17554L 22.1778 4.17554C 22.3138 4.93555 22.8538 5.21155 23.4457 5.21155C 23.8737 5.21155 24.3216 5.05151 24.6776 4.76758L 25.1295 5.44751C 24.6136 5.87939 24.0297 6.03943 23.3937 6.03943C 22.1298 6.03943 21.2259 5.15955 21.2259 3.81567C 21.2259 2.49573 22.0938 1.5918 23.3337 1.5918ZM 28.3212 1.59583L 28.9772 1.71179L 28.6932 2.57971L 28.1173 2.4718C 27.5133 2.4718 27.2133 2.85974 27.2133 3.55969L 27.2133 5.93542L 26.2934 5.93542L 26.2934 1.70386L 27.2053 1.70386L 27.2053 2.21582C 27.4453 1.84387 27.7893 1.59583 28.3212 1.59583ZM 31.4849 2.45972C 30.749 2.4718 30.2091 2.99976 30.2091 3.81567C 30.2091 4.63159 30.749 5.16345 31.4809 5.17151C 31.8809 5.17151 32.2449 5.03955 32.5888 4.7915L 33.0328 5.53552C 32.5728 5.89941 32.1449 6.03943 31.5089 6.03943C 30.1451 6.03943 29.2571 5.09949 29.2571 3.81567C 29.2571 2.53174 30.1491 1.5918 31.5129 1.5918C 32.1529 1.5918 32.5768 1.73181 33.0368 2.09583L 32.5928 2.83972C 32.2449 2.5918 31.8849 2.45972 31.4849 2.45972ZM 36.9524 1.69983L 37.8723 1.69983L 37.8723 5.9314L 36.9524 5.9314L 36.9524 5.41943C 36.6604 5.79944 36.2205 6.03943 35.6165 6.03943C 34.4286 6.03943 33.5007 5.10754 33.5007 3.81567C 33.5007 2.51978 34.4286 1.5918 35.6165 1.5918C 36.2165 1.5918 36.6604 1.83179 36.9524 2.21179L 36.9524 1.69983ZM 41.112 1.59583L 41.7679 1.71179L 41.4839 2.57971L 40.908 2.4718C 40.3041 2.4718 40.0041 2.85974 40.0041 3.55969L 40.0041 5.93542L 39.0842 5.93542L 39.0842 1.70386L 39.9961 1.70386L 39.9961 2.21582C 40.2361 1.84387 40.58 1.59583 41.112 1.59583ZM 45.4956 0L 46.4155 0L 46.4155 5.9314L 45.4956 5.9314L 45.4956 5.41943C 45.2036 5.79944 44.7636 6.03943 44.1597 6.03943C 42.9718 6.03943 42.0439 5.10754 42.0439 3.81567C 42.0439 2.51978 42.9718 1.5918 44.1597 1.5918C 44.7596 1.5918 45.2036 1.83179 45.4956 2.21179L 45.4956 0ZM 9.75518 2.46362C 8.95926 2.46362 8.47131 3.07556 8.47131 3.81946C 8.47131 4.56335 8.95926 5.17542 9.75518 5.17542C 10.5151 5.17542 11.0311 4.59143 11.0311 3.81946C 11.0311 3.04761 10.5191 2.46362 9.75518 2.46362ZM 22.1936 3.44763C 22.2896 2.83569 22.6616 2.41968 23.3175 2.41968C 23.9135 2.41968 24.2934 2.79163 24.3894 3.44763L 22.1936 3.44763ZM 44.2757 2.46362C 43.4798 2.46362 42.9919 3.07556 42.9919 3.81946C 42.9919 4.56335 43.4798 5.17542 44.2757 5.17542C 45.0357 5.17542 45.5516 4.59143 45.5516 3.81946C 45.5516 3.04761 45.0357 2.46362 44.2757 2.46362Z"/>
<path id="path1_fill" d="M 31.9969 15.9984C 31.9969 24.8341 24.8341 31.9969 15.9984 31.9969C 7.16274 31.9969 0 24.8341 0 15.9984C 0 7.16274 7.16274 0 15.9984 0C 24.8341 0 31.9969 7.16274 31.9969 15.9984Z"/>
<path id="path2_fill" fill-rule="evenodd" d="M 5.9994 24.979C 9.65689 22.047 11.9988 17.5417 11.9988 12.4895C 11.9988 7.43726 9.65689 2.93201 5.9994 0C 2.34192 2.93201 0 7.43726 0 12.4895C 0 17.5417 2.34192 22.047 5.9994 24.979Z"/>
<path id="path3_fill" fill-rule="evenodd" d="M 5.9994 24.979C 9.65689 22.047 11.9988 17.5417 11.9988 12.4895C 11.9988 7.43726 9.65689 2.93201 5.9994 0C 2.34192 2.93201 0 7.43726 0 12.4895C 0 17.5417 2.34192 22.047 5.9994 24.979Z"/>
</defs>
</svg>
