<svg width="135" height="40" viewBox="0 0 135 40" version="1.1" xmlns="http://www.w3.org/2000/svg" xmlns:xlink="http://www.w3.org/1999/xlink">
<title>Download_on_the_App_Store_Badge_US-UK_135x40</title>
<desc>Created using Figma</desc>
<g id="Canvas" transform="translate(547 -1047)">
<rect x="-547" y="1047" width="135" height="40" fill="#E5E5E5"/>
<clipPath id="clip-0" clip-rule="evenodd">
<path d="M -889 -195L 551 -195L 551 1175L -889 1175L -889 -195Z" fill="#FFFFFF"/>
</clipPath>
<g id="Landing" clip-path="url(#clip-0)">
<path d="M -889 -195L 551 -195L 551 1175L -889 1175L -889 -195Z" fill="#FFFFFF"/>
<g id="Group 9">
<g id="Rectangle 4">
<use xlink:href="#path0_fill" transform="translate(-889 868)" fill="#F2F2F2"/>
</g>
<g id="Group 5">
<g id="Download_on_the_App_Store_Badge_US-UK_135x40">
<g id="Group">
<g id="Vector">
<use xlink:href="#path1_fill" transform="translate(-547 1047)" fill="#A6A6A6"/>
</g>
<g id="Vector">
<use xlink:href="#path2_fill" transform="translate(-546.11 1047.89)"/>
</g>
<g id="Group">
<g id="Rectangle">
<use xlink:href="#path3_fill" transform="translate(-533 1056)" fill="#FFFFFF"/>
</g>
<g id="Rectangle">
<use xlink:href="#path3_fill" transform="translate(-522 1056)" fill="#FFFFFF"/>
</g>
<g id="Rectangle">
<use xlink:href="#path3_fill" transform="translate(-533 1067)" fill="#FFFFFF"/>
</g>
<g id="Rectangle">
<use xlink:href="#path3_fill" transform="translate(-522 1067)" fill="#FFFFFF"/>
</g>
</g>
</g>
</g>
</g>
</g>
<g id="&#208;&#161;&#208;&#186;&#208;&#176;&#209;&#135;&#208;&#176;&#209;&#130;&#209;&#140; &#209;&#131;">
<use xlink:href="#path4_fill" transform="translate(-504 1053)" fill="#FFFFFF"/>
</g>
<g id="Microsoft">
<use xlink:href="#path5_fill" transform="translate(-504 1065)" fill="#FFFFFF"/>
</g>
</g>
</g>
<defs>
<path id="path0_fill" d="M 0 0L 1440 0L 1440 251L 0 251L 0 0Z"/>
<path id="path1_fill" d="M 130.197 40L 4.729 40C 2.122 40 0 37.872 0 35.267L 0 4.726C 0 2.12 2.122 0 4.729 0L 130.197 0C 132.803 0 135 2.12 135 4.726L 135 35.267C 135 37.872 132.803 40 130.197 40Z"/>
<path id="path2_fill" d="M 133.142 34.378C 133.142 36.494 131.428 38.208 129.308 38.208L 3.839 38.208C 1.72 38.208 -1.43051e-08 36.494 -1.43051e-08 34.378L -1.43051e-08 3.835C -1.43051e-08 1.72 1.72 -1.43051e-08 3.839 -1.43051e-08L 129.307 -1.43051e-08C 131.428 -1.43051e-08 133.141 1.72 133.141 3.835L 133.142 34.378Z"/>
<path id="path3_fill" d="M 0 0L 10 0L 10 10L 0 10L 0 0Z"/>
<path id="path4_fill" d="M 6.05469 6.74414C 5.9668 7.49609 5.68848 8.07715 5.21973 8.4873C 4.75423 8.89421 4.13411 9.09766 3.35938 9.09766C 2.51953 9.09766 1.8457 8.79655 1.33789 8.19434C 0.833333 7.59212 0.581055 6.78646 0.581055 5.77734L 0.581055 5.09375C 0.581055 4.43294 0.698242 3.85189 0.932617 3.35059C 1.17025 2.84928 1.50553 2.46517 1.93848 2.19824C 2.37142 1.92806 2.87272 1.79297 3.44238 1.79297C 4.19759 1.79297 4.80306 2.00456 5.25879 2.42773C 5.71452 2.84766 5.97982 3.43034 6.05469 4.17578L 5.1123 4.17578C 5.03092 3.60938 4.85352 3.19922 4.58008 2.94531C 4.3099 2.69141 3.93066 2.56445 3.44238 2.56445C 2.84342 2.56445 2.37305 2.78581 2.03125 3.22852C 1.69271 3.67122 1.52344 4.30111 1.52344 5.11816L 1.52344 5.80664C 1.52344 6.57812 1.68457 7.19173 2.00684 7.64746C 2.3291 8.10319 2.77995 8.33105 3.35938 8.33105C 3.88021 8.33105 4.27897 8.21387 4.55566 7.97949C 4.83561 7.74186 5.02116 7.33008 5.1123 6.74414L 6.05469 6.74414ZM 8.84277 6.74902L 8.18359 6.74902L 8.18359 9L 7.27539 9L 7.27539 3.7168L 8.18359 3.7168L 8.18359 5.95312L 8.77441 5.95312L 10.5518 3.7168L 11.6455 3.7168L 9.55566 6.25586L 11.8213 9L 10.6738 9L 8.84277 6.74902ZM 15.8594 9C 15.8073 8.89583 15.765 8.71029 15.7324 8.44336C 15.3125 8.87956 14.8112 9.09766 14.2285 9.09766C 13.7077 9.09766 13.2796 8.95117 12.9443 8.6582C 12.6123 8.36198 12.4463 7.98763 12.4463 7.53516C 12.4463 6.98503 12.6546 6.55859 13.0713 6.25586C 13.4912 5.94987 14.0804 5.79688 14.8389 5.79688L 15.7178 5.79688L 15.7178 5.38184C 15.7178 5.06608 15.6234 4.81543 15.4346 4.62988C 15.2458 4.44108 14.9674 4.34668 14.5996 4.34668C 14.2773 4.34668 14.0072 4.42806 13.7891 4.59082C 13.571 4.75358 13.4619 4.95052 13.4619 5.18164L 12.5537 5.18164C 12.5537 4.91797 12.6465 4.66406 12.832 4.41992C 13.0208 4.17253 13.2747 3.97721 13.5938 3.83398C 13.916 3.69076 14.2692 3.61914 14.6533 3.61914C 15.262 3.61914 15.7389 3.77214 16.084 4.07812C 16.429 4.38086 16.6081 4.79915 16.6211 5.33301L 16.6211 7.76465C 16.6211 8.24967 16.6829 8.63542 16.8066 8.92188L 16.8066 9L 15.8594 9ZM 14.3604 8.31152C 14.6436 8.31152 14.9121 8.23828 15.166 8.0918C 15.4199 7.94531 15.6038 7.75488 15.7178 7.52051L 15.7178 6.43652L 15.0098 6.43652C 13.903 6.43652 13.3496 6.76042 13.3496 7.4082C 13.3496 7.69141 13.444 7.91276 13.6328 8.07227C 13.8216 8.23177 14.0641 8.31152 14.3604 8.31152ZM 22.0264 9L 21.1182 9L 21.1182 7.08594C 20.721 7.1901 20.3141 7.24219 19.8975 7.24219C 19.2367 7.24219 18.7321 7.07292 18.3838 6.73438C 18.0387 6.39583 17.863 5.91406 17.8564 5.28906L 17.8564 3.71191L 18.7598 3.71191L 18.7598 5.31836C 18.776 6.10612 19.1553 6.5 19.8975 6.5C 20.3141 6.5 20.721 6.44792 21.1182 6.34375L 21.1182 3.7168L 22.0264 3.7168L 22.0264 9ZM 26.7383 9C 26.6862 8.89583 26.6439 8.71029 26.6113 8.44336C 26.1914 8.87956 25.6901 9.09766 25.1074 9.09766C 24.5866 9.09766 24.1585 8.95117 23.8232 8.6582C 23.4912 8.36198 23.3252 7.98763 23.3252 7.53516C 23.3252 6.98503 23.5335 6.55859 23.9502 6.25586C 24.3701 5.94987 24.9593 5.79688 25.7178 5.79688L 26.5967 5.79688L 26.5967 5.38184C 26.5967 5.06608 26.5023 4.81543 26.3135 4.62988C 26.1247 4.44108 25.8464 4.34668 25.4785 4.34668C 25.1562 4.34668 24.8861 4.42806 24.668 4.59082C 24.4499 4.75358 24.3408 4.95052 24.3408 5.18164L 23.4326 5.18164C 23.4326 4.91797 23.5254 4.66406 23.7109 4.41992C 23.8997 4.17253 24.1536 3.97721 24.4727 3.83398C 24.7949 3.69076 25.1481 3.61914 25.5322 3.61914C 26.141 3.61914 26.6178 3.77214 26.9629 4.07812C 27.3079 4.38086 27.487 4.79915 27.5 5.33301L 27.5 7.76465C 27.5 8.24967 27.5618 8.63542 27.6855 8.92188L 27.6855 9L 26.7383 9ZM 25.2393 8.31152C 25.5225 8.31152 25.791 8.23828 26.0449 8.0918C 26.2988 7.94531 26.4827 7.75488 26.5967 7.52051L 26.5967 6.43652L 25.8887 6.43652C 24.7819 6.43652 24.2285 6.76042 24.2285 7.4082C 24.2285 7.69141 24.3229 7.91276 24.5117 8.07227C 24.7005 8.23177 24.943 8.31152 25.2393 8.31152ZM 32.7637 4.44922L 30.9912 4.44922L 30.9912 9L 30.0879 9L 30.0879 4.44922L 28.3496 4.44922L 28.3496 3.7168L 32.7637 3.7168L 32.7637 4.44922ZM 34.6289 5.53809L 36.001 5.53809C 36.5999 5.5446 37.0736 5.70085 37.4219 6.00684C 37.7702 6.31283 37.9443 6.72786 37.9443 7.25195C 37.9443 7.7793 37.7653 8.20247 37.4072 8.52148C 37.0492 8.84049 36.5674 9 35.9619 9L 33.7256 9L 33.7256 3.7168L 34.6289 3.7168L 34.6289 5.53809ZM 34.6289 6.27539L 34.6289 8.2627L 35.9717 8.2627C 36.3102 8.2627 36.5723 8.17643 36.7578 8.00391C 36.9434 7.82812 37.0361 7.58887 37.0361 7.28613C 37.0361 6.99316 36.945 6.75391 36.7627 6.56836C 36.5837 6.37956 36.3314 6.2819 36.0059 6.27539L 34.6289 6.27539ZM 43.2812 7.67676L 44.5117 3.7168L 45.4785 3.7168L 43.3545 9.81543C 43.0257 10.6943 42.5033 11.1338 41.7871 11.1338L 41.6162 11.1191L 41.2793 11.0557L 41.2793 10.3232L 41.5234 10.3428C 41.8294 10.3428 42.0671 10.2809 42.2363 10.1572C 42.4089 10.0335 42.5505 9.80729 42.6611 9.47852L 42.8613 8.94141L 40.9766 3.7168L 41.9629 3.7168L 43.2812 7.67676Z"/>
<path id="path5_fill" d="M 3.02148 2.75781L 5.6875 9.8418L 8.34717 2.75781L 10.4229 2.75781L 10.4229 12L 8.82324 12L 8.82324 8.95312L 8.98193 4.87793L 6.25244 12L 5.10352 12L 2.38037 4.88428L 2.53906 8.95312L 2.53906 12L 0.939453 12L 0.939453 2.75781L 3.02148 2.75781ZM 13.8188 12L 12.2764 12L 12.2764 5.13184L 13.8188 5.13184L 13.8188 12ZM 12.1812 3.34814C 12.1812 3.11117 12.2552 2.91439 12.4033 2.75781C 12.5557 2.60124 12.7715 2.52295 13.0508 2.52295C 13.3301 2.52295 13.5459 2.60124 13.6982 2.75781C 13.8506 2.91439 13.9268 3.11117 13.9268 3.34814C 13.9268 3.58089 13.8506 3.77555 13.6982 3.93213C 13.5459 4.08447 13.3301 4.16064 13.0508 4.16064C 12.7715 4.16064 12.5557 4.08447 12.4033 3.93213C 12.2552 3.77555 12.1812 3.58089 12.1812 3.34814ZM 18.3257 10.8955C 18.7108 10.8955 19.0303 10.7834 19.2842 10.5591C 19.5381 10.3348 19.6735 10.0576 19.6904 9.72754L 21.144 9.72754C 21.1271 10.1549 20.9938 10.5549 20.7441 10.9272C 20.4945 11.2954 20.1559 11.5874 19.7285 11.8032C 19.3011 12.019 18.8398 12.127 18.3447 12.127C 17.3841 12.127 16.6224 11.8159 16.0596 11.1938C 15.4967 10.5718 15.2153 9.71273 15.2153 8.6167L 15.2153 8.45801C 15.2153 7.41276 15.4946 6.57699 16.0532 5.95068C 16.6118 5.32015 17.3735 5.00488 18.3384 5.00488C 19.1551 5.00488 19.8195 5.24398 20.3315 5.72217C 20.8478 6.19613 21.1187 6.82031 21.144 7.59473L 19.6904 7.59473C 19.6735 7.20117 19.5381 6.87744 19.2842 6.62354C 19.0345 6.36963 18.715 6.24268 18.3257 6.24268C 17.8263 6.24268 17.4412 6.42464 17.1704 6.78857C 16.8996 7.14827 16.762 7.69629 16.7578 8.43262L 16.7578 8.68018C 16.7578 9.42497 16.8911 9.98145 17.1577 10.3496C 17.4285 10.7135 17.8179 10.8955 18.3257 10.8955ZM 25.9048 6.54102C 25.7017 6.50716 25.4922 6.49023 25.2764 6.49023C 24.5697 6.49023 24.0936 6.76107 23.8481 7.30273L 23.8481 12L 22.3057 12L 22.3057 5.13184L 23.7783 5.13184L 23.8164 5.8999C 24.1888 5.30322 24.7051 5.00488 25.3652 5.00488C 25.5853 5.00488 25.7673 5.0345 25.9111 5.09375L 25.9048 6.54102ZM 26.3618 8.50244C 26.3618 7.82959 26.4951 7.22445 26.7617 6.68701C 27.0283 6.14535 27.4028 5.73063 27.8853 5.44287C 28.3677 5.15088 28.922 5.00488 29.5483 5.00488C 30.4751 5.00488 31.2262 5.30322 31.8018 5.8999C 32.3815 6.49658 32.6947 7.28792 32.7412 8.27393L 32.7476 8.63574C 32.7476 9.31283 32.6164 9.91797 32.354 10.4512C 32.0959 10.9844 31.7235 11.397 31.2368 11.689C 30.7544 11.981 30.1958 12.127 29.561 12.127C 28.592 12.127 27.8154 11.8053 27.2314 11.1621C 26.6517 10.5146 26.3618 9.65348 26.3618 8.57861L 26.3618 8.50244ZM 27.9043 8.63574C 27.9043 9.34245 28.0503 9.89681 28.3423 10.2988C 28.6343 10.6966 29.0405 10.8955 29.561 10.8955C 30.0815 10.8955 30.4857 10.6924 30.7734 10.2861C 31.0654 9.87988 31.2114 9.28532 31.2114 8.50244C 31.2114 7.80843 31.0612 7.2583 30.7607 6.85205C 30.4645 6.4458 30.0604 6.24268 29.5483 6.24268C 29.0448 6.24268 28.6449 6.44369 28.3486 6.8457C 28.0524 7.24349 27.9043 7.84017 27.9043 8.63574ZM 37.9019 10.1338C 37.9019 9.85872 37.7876 9.64925 37.5591 9.50537C 37.3348 9.36149 36.9603 9.23454 36.4355 9.12451C 35.9108 9.01449 35.4728 8.87484 35.1216 8.70557C 34.3514 8.33317 33.9663 7.79362 33.9663 7.08691C 33.9663 6.49447 34.216 5.99935 34.7153 5.60156C 35.2147 5.20378 35.8494 5.00488 36.6196 5.00488C 37.4406 5.00488 38.1029 5.20801 38.6064 5.61426C 39.1143 6.02051 39.3682 6.54736 39.3682 7.19482L 37.8257 7.19482C 37.8257 6.8986 37.7157 6.65316 37.4956 6.4585C 37.2756 6.2596 36.9836 6.16016 36.6196 6.16016C 36.2811 6.16016 36.0039 6.23844 35.7881 6.39502C 35.5765 6.5516 35.4707 6.76107 35.4707 7.02344C 35.4707 7.26042 35.5701 7.4445 35.769 7.57568C 35.9679 7.70687 36.37 7.84017 36.9751 7.97559C 37.5802 8.10677 38.0542 8.26546 38.397 8.45166C 38.744 8.63363 39 8.85368 39.165 9.11182C 39.3343 9.36995 39.4189 9.68311 39.4189 10.0513C 39.4189 10.6691 39.1629 11.1706 38.6509 11.5557C 38.1388 11.9365 37.4681 12.127 36.6387 12.127C 36.0758 12.127 35.5744 12.0254 35.1343 11.8223C 34.6942 11.6191 34.3514 11.3398 34.106 10.9844C 33.8605 10.6289 33.7378 10.2459 33.7378 9.83545L 35.2358 9.83545C 35.257 10.1994 35.3945 10.4808 35.6484 10.6797C 35.9023 10.8743 36.2388 10.9717 36.6577 10.9717C 37.064 10.9717 37.3729 10.8955 37.5845 10.7432C 37.7961 10.5866 37.9019 10.3835 37.9019 10.1338ZM 40.479 8.50244C 40.479 7.82959 40.6123 7.22445 40.8789 6.68701C 41.1455 6.14535 41.52 5.73063 42.0024 5.44287C 42.4849 5.15088 43.0392 5.00488 43.6655 5.00488C 44.5923 5.00488 45.3434 5.30322 45.9189 5.8999C 46.4987 6.49658 46.8118 7.28792 46.8584 8.27393L 46.8647 8.63574C 46.8647 9.31283 46.7336 9.91797 46.4712 10.4512C 46.2131 10.9844 45.8407 11.397 45.354 11.689C 44.8716 11.981 44.313 12.127 43.6782 12.127C 42.7091 12.127 41.9326 11.8053 41.3486 11.1621C 40.7689 10.5146 40.479 9.65348 40.479 8.57861L 40.479 8.50244ZM 42.0215 8.63574C 42.0215 9.34245 42.1675 9.89681 42.4595 10.2988C 42.7515 10.6966 43.1577 10.8955 43.6782 10.8955C 44.1987 10.8955 44.6029 10.6924 44.8906 10.2861C 45.1826 9.87988 45.3286 9.28532 45.3286 8.50244C 45.3286 7.80843 45.1784 7.2583 44.8779 6.85205C 44.5817 6.4458 44.1776 6.24268 43.6655 6.24268C 43.1619 6.24268 42.762 6.44369 42.4658 6.8457C 42.1696 7.24349 42.0215 7.84017 42.0215 8.63574ZM 48.7119 12L 48.7119 6.27441L 47.6646 6.27441L 47.6646 5.13184L 48.7119 5.13184L 48.7119 4.50342C 48.7119 3.7417 48.9235 3.15348 49.3467 2.73877C 49.7699 2.32406 50.3623 2.1167 51.124 2.1167C 51.3949 2.1167 51.6826 2.15479 51.9873 2.23096L 51.9492 3.43701C 51.7799 3.40316 51.5832 3.38623 51.3589 3.38623C 50.6226 3.38623 50.2544 3.76497 50.2544 4.52246L 50.2544 5.13184L 51.6509 5.13184L 51.6509 6.27441L 50.2544 6.27441L 50.2544 12L 48.7119 12ZM 54.7104 3.4624L 54.7104 5.13184L 55.9229 5.13184L 55.9229 6.27441L 54.7104 6.27441L 54.7104 10.1084C 54.7104 10.3708 54.7612 10.5612 54.8628 10.6797C 54.9686 10.7939 55.1548 10.8511 55.4214 10.8511C 55.5991 10.8511 55.779 10.8299 55.9609 10.7876L 55.9609 11.981C 55.6097 12.0783 55.2712 12.127 54.9453 12.127C 53.7604 12.127 53.168 11.4731 53.168 10.1655L 53.168 6.27441L 52.0381 6.27441L 52.0381 5.13184L 53.168 5.13184L 53.168 3.4624L 54.7104 3.4624Z"/>
</defs>
</svg>
