<svg width="34" height="38" viewBox="0 0 34 38" version="1.1" xmlns="http://www.w3.org/2000/svg" xmlns:xlink="http://www.w3.org/1999/xlink">
<title>Group</title>
<desc>Created using Figma</desc>
<g id="Canvas" transform="translate(133 -399)">
<g id="Group">
<g id="Vector">
<use xlink:href="#path0_fill" transform="translate(-132.667 399.333)"/>
</g>
<g id="Vector">
<use xlink:href="#path0_fill" transform="translate(-132.667 399.333)" fill="#FFFFFF"/>
</g>
</g>
</g>
<defs>
<path id="path0_fill" d="M 29.7934 22.7831C 28.5049 22.0209 27.0539 21.8 25.6167 21.7486C 24.4109 21.7055 22.6118 20.9139 22.6118 18.6668C 22.6118 16.9925 23.9367 15.6451 25.6173 15.5849C 27.0544 15.5335 28.5052 15.3124 29.7934 14.5505C 32.9922 12.6585 34.4033 8.68681 33.14 5.13106C 31.8766 1.57532 28.3035 -0.53793 24.6659 0.119227C 21.0283 0.776385 18.3763 4.01423 18.3765 7.79819C 18.3765 9.30888 18.901 10.6991 19.5702 11.9885C 20.1331 13.073 20.4178 15.0858 18.4874 16.2275C 17.0513 17.0769 15.2591 16.5391 14.3639 15.0714C 13.6077 13.8317 12.6949 12.6702 11.4169 11.9142C 8.21806 10.0222 4.15496 10.7562 1.7807 13.6548C -0.593566 16.5534 -0.593566 20.78 1.7807 23.6786C 4.15496 26.5773 8.21806 27.3112 11.4169 25.4192C 12.6945 24.6635 13.6074 23.5027 14.3631 22.2638C 14.9837 21.2465 16.5335 19.9497 18.4873 21.1062C 19.9212 21.9549 20.3644 23.8144 19.5695 25.346C 18.9004 26.6352 18.3766 28.0251 18.3766 29.5355C 18.3766 33.3194 21.0285 36.5571 24.6661 37.2141C 28.3036 37.8712 31.8766 35.758 33.1399 32.2023C 34.4032 28.6466 32.9921 24.675 29.7934 22.7831Z"/>
</defs>
</svg>
