<svg width="36" height="36" viewBox="0 0 36 36" version="1.1" xmlns="http://www.w3.org/2000/svg" xmlns:xlink="http://www.w3.org/1999/xlink">
<title>iconmonstr-google-plus-2</title>
<desc>Created using Figma</desc>
<g id="Canvas" transform="translate(692 -900)">
<g id="iconmonstr-google-plus-2">
<g id="Vector">
<use xlink:href="#path0_fill" transform="translate(-692 900)"/>
<use xlink:href="#path0_fill" transform="translate(-692 900)" fill="#2D9CDB"/>
<use xlink:href="#path0_fill" transform="translate(-692 900)" fill="#E0E0E0"/>
</g>
<g id="skype">
<g id="Vector">
<use xlink:href="#path1_fill" transform="translate(-682 910)" fill="#4F4F4F"/>
</g>
</g>
</g>
</g>
<defs>
<path id="path0_fill" d="M 18 0C 8.05887 0 0 8.05887 0 18L 0 18C 0 27.9411 8.05887 36 18 36L 18 36C 27.9411 36 36 27.9411 36 18L 36 18C 36 8.05887 27.9411 0 18 0L 18 0Z"/>
<path id="path1_fill" d="M 15.2461 9.35812C 15.3299 8.89694 15.3722 8.44047 15.3722 8C 15.3722 3.49365 11.3544 -0.101647 6.64094 0.753882C 5.92941 0.259765 5.10212 0 4.23529 0C 1.90024 0 0 1.90024 0 4.23529C 0 5.10212 0.259765 5.92941 0.753882 6.64188C 0.670118 7.10306 0.627765 7.55859 0.627765 8C 0.627765 12.5064 4.64659 16.1016 9.35906 15.2461C 10.0706 15.7402 10.8979 16 11.7647 16C 14.0998 16 16 14.0998 16 11.7647C 16 10.8979 15.7402 10.0706 15.2461 9.35812ZM 11.9708 9.63671C 11.9708 11.6273 10.0489 12.5487 8.20612 12.5487C 6 12.5487 4.15624 11.568 4.15624 10.3624C 4.15624 9.824 4.46024 9.33365 5.14729 9.33365C 6.19671 9.33365 6.29459 10.8433 8.10824 10.8433C 8.97035 10.8433 9.52941 10.4621 9.52941 9.96141C 9.52941 9.33365 8.99012 9.23576 8.11765 9.02023L 6.68612 8.66729C 5.25553 8.32376 4.15624 7.73553 4.15624 6.08847C 4.15624 4.09882 6.12706 3.36282 7.82306 3.36282C 9.67624 3.36282 11.5482 4.09788 11.5482 5.22541C 11.5482 5.79388 11.1661 6.29459 10.5289 6.29459C 9.57741 6.29459 9.54824 5.168 8.00847 5.168C 7.14635 5.168 6.59671 5.40235 6.59671 5.92188C 6.59671 6.49129 7.15576 6.61835 7.90212 6.79529L 8.92047 7.03059C 10.3134 7.344 11.9708 7.93129 11.9708 9.63671Z"/>
</defs>
</svg>
