<svg width="70" height="24" viewBox="0 0 70 24" version="1.1" xmlns="http://www.w3.org/2000/svg" xmlns:xlink="http://www.w3.org/1999/xlink">
<title>VISA</title>
<desc>Created using Figma</desc>
<g id="Canvas" transform="translate(-188 -2013)">
<g id="VISA">
<g id="Subtract">
<use xlink:href="#path0_fill" transform="translate(188 2013.33)" fill="#18297E"/>
<use xlink:href="#path0_fill" transform="translate(188 2013.33)" fill="#BDBDBD"/>
</g>
</g>
</g>
<defs>
<path id="path0_fill" fill-rule="evenodd" d="M 45.3005 9.46729C 48.5695 11.0807 50.078 13.0365 50.057 15.6088C 50.0115 20.3005 46.144 23.3333 40.187 23.3333C 37.646 23.3066 35.196 22.7587 33.873 22.1271L 34.6675 17.0662L 35.399 17.4276C 37.261 18.2723 38.465 18.6149 40.733 18.6149C 42.364 18.6149 44.1105 17.9224 44.1245 16.4078C 44.135 15.4186 43.393 14.7108 41.188 13.6034C 39.039 12.5228 36.19 10.7115 36.2215 7.46191C 36.2565 3.06702 40.201 0 45.801 0C 47.9955 0 49.756 0.490845 50.8795 0.951294L 50.113 5.84851L 49.6055 5.58984C 48.559 5.12939 47.2185 4.69177 45.3635 4.72217C 43.1445 4.72217 42.119 5.72681 42.119 6.66663C 42.105 7.72449 43.3195 8.42078 45.3005 9.46729ZM 33.8695 0.391968L 28.203 0.391968L 24.661 22.9984L 30.3275 22.9984L 33.8695 0.391968ZM 16.989 22.9718L 25.9105 0.411011L 19.908 0.411011L 14.3605 15.8257L 13.769 12.694L 11.781 2.30591C 11.438 0.871338 10.4405 0.44519 9.21201 0.395752L 0.0735016 0.395752L 0 0.86377C 2.2225 1.44971 4.21049 2.29456 5.95351 3.34094L 10.9935 22.9756L 16.989 22.9718ZM 70 23.006L 65.4115 0.414795L 61.033 0.414795C 59.675 0.414795 58.66 0.818115 58.065 2.29065L 49.6475 23.006L 55.5975 23.006L 56.791 19.608L 64.05 19.6194L 64.7395 23.006L 70 23.006ZM 61.817 8.45496L 63.1295 14.9846L 58.4255 14.9846L 60.683 8.66418L 61.4355 6.50671L 61.817 8.45496Z"/>
</defs>
</svg>
